<?xml version="1.0" encoding="utf-8"?>
<!-- Generator: Adobe Illustrator 27.3.1, SVG Export Plug-In . SVG Version: 6.00 Build 0)  -->
<svg version="1.1" xmlns="http://www.w3.org/2000/svg" xmlns:xlink="http://www.w3.org/1999/xlink" x="0px" y="0px"
	 viewBox="0 0 752.9 344" style="enable-background:new 0 0 752.9 344;" xml:space="preserve">
<style type="text/css">
	.st0{display:none;}
	.st1{display:inline;fill:#030304;}
	.st2{display:none;fill:#FFFFFF;}
	.st3{fill:#FED118;}
	.st4{fill:#CF1428;}
	.st5{fill:#FDC500;}
	.st6{fill:#006938;}
	.st7{fill:#CE132D;}
</style>
<g id="Layer_2" class="st0">
	<rect x="-71.9" y="-75" class="st1" width="885.9" height="469.5"/>
</g>
<g id="Layer_1">
	<rect x="-48.4" y="-40.6" class="st2" width="850.4" height="425.2"/>
	<g>
		<polygon points="185.4,43.6 168.3,52.6 171.6,33.6 157.8,20.1 176.9,17.3 185.4,0 193.9,17.3 213,20.1 199.2,33.6 202.5,52.6 		
			"/>
		<polygon points="185.4,43.6 168.3,52.6 171.6,33.6 157.8,20.1 176.9,17.3 185.4,0 193.9,17.3 213,20.1 199.2,33.6 202.5,52.6 		
			"/>
		<g>
			<path d="M253.5,51.7l1,1.1v1.1l1.1-1.1h5.3c1.4,0,2.1,1.8,2,5.3h1.1c0.1-2.1,0.8-3.2,2.2-3.2c1.4,0,2.1,1.1,2,3.2l7.4-1.1
				l11.3,2.1L291,58c5.4,0,9.5,2.8,12.4,8.4l-1.1,7.4l1,1.1v1.1l-2.3,6.3h-1.1l0.1-2.1h-1.1c-5.5,13.2-13.1,22.4-23.1,27.4
				l-17.1,7.4l-0.6,17.9l0.9,5.3c-1.4,0-3.3,3.5-5.6,10.5l-1.1,1.1h-1.1l-8.3-4.2l1.4-8.4l-3-4.2l2.6-14.8l-1.1-1.1l3.8-20l-1.1-1.1
				l1.1-1.1h2.1l-0.1,4.2h1.1l0.2-5.3l-0.9-3.2h2.1l0.1-5.3l-2-2.1l-0.1,4.2h-1.1c0.2-4.5-1.8-8-6-10.5l-0.9-6.3l0.2-4.2
				c9.2-3.8,13.8-6.2,13.9-7.4l0.1-1.1l-2-2.1l-1.1,1.1l-1-4.2l1.1-1.1H253.5z M246.7,100.2l-0.1,1.1l1,1.1l-1.1,1.1l-0.1,2.1h2.1
				l0.2-5.3H246.7z M289.5,78c-2.2,4-11.2,9.9-27,17.9l-1.1,1.1v1.1h2.1c10.4-3.2,19.4-9.9,27-20H289.5z M262.7,92.8h2.1
				c9.1-3.8,17-10.1,23.8-19h-3.2c-14.1,1-21.2,3.1-21.3,6.3L262.7,92.8z"/>
			<path d="M345,55.7c8.3,0,16,2.5,23.2,7.4l-1.1,1.1v1.1l4.2,6.3h-2.1l-1.1-1.1h-1.1l3.2,23.2h1.1c0-3.5,0.7-5.3,2.1-5.3v4.2
				c0,4-3.5,13.1-10.5,27.4h1.1c-5,6.8-12.3,13.1-22.1,19l-5.3,1.1h-1.1c-16.7,0-27.2-6.7-31.6-20l-4.2-6.3l1.1-1.1l-1.1-7.4v-2.1
				c0-5.8,5.6-16,16.9-30.6v1.1c-5.2,6.9-9.4,14.7-12.6,23.2v1.1h1.1c2.6-10.3,12-23.3,28.5-39L326,63H325
				C325,59.8,331.6,57.4,345,55.7z M302.8,103.1v8.4h1.1v-8.4H302.8z M316.5,88.3l-3.2,6.3h1.1l3.2-6.3H316.5z M339.7,73.6l-1.1-1.1
				v1.1l1.1,1.1l-7.4,6.3c-5.8,0-11.4,9.8-16.9,29.5c0,5.6,3.2,10.5,9.5,14.8h1.1c7.7,0,16.5-8.1,26.3-24.2
				c3.5-7.7,5.3-13.3,5.3-16.9v-8.4c0-1.9-3.5-3.3-10.5-4.2h-1.1l-1.1,1.1h-1.1v-1.1L339.7,73.6z M318.6,129.4v1.1l5.3,3.2v-1.1
				L318.6,129.4z M352.4,106.3l-4.2,5.3h1.1l4.2-5.3H352.4z M357.6,94.7l-4.2,10.5h3.2l3.2-7.4l-1.1-3.2H357.6z M365,98.9L364,102
				v2.1h1.1l1.1-4.2v-1.1H365z M370.3,76.7h2.1V82h-2.1V76.7z"/>
			<path d="M398.7,55.4h12.6c14.8,2.8,22.1,9.1,22.1,19v6.3l-10.5,14.8h1.1l10.5-9.5v2.1c-3.6,8-8.2,13.3-13.7,15.8l-6.3,2.1v4.2
				c1.5,0,8.9,9.1,22.1,27.4c2.8,1.2,5.6,4,8.4,8.4v1.1l-5.3-4.2v1.1c3.5,3.7,5.3,6.5,5.3,8.4H444l-5.3,3.2h-1.1l-2.1-3.2l-1.1,1.1
				h-1.1c-14.1-11.5-23.9-23.1-29.5-34.8l-5.3-10.5c-2.5,0-3.9,4.2-4.2,12.6c0.5,7,0.1,11.3-1.1,12.8c-2.1,1.7-2.4,3.4-1.1,5.1v2.1
				h-3.2c-1.4,0-2.1-1.4-2.1-4.2h-1.1c0,2.8-1.3,3.9-4,3.2l-4.6-6.2l1.2-9.6v-4.2l6.3-29.5h1.1v4.2h1.1l5.3-22.1
				c-1.4,0-2.1,1.4-2.1,4.2h-1.1v-2.1h-6.3v-1.1c0-1.4,2.1-2.5,6.3-3.2v-1.1h-2.1l-6.3,2.1h-1.1c0-1.4,1.4-2.1,4.2-2.1v-1.1
				c-2.8,0-4.2-1.1-4.2-3.2L398.7,55.4z M383.9,99.7v4.2h1.1v-4.2H383.9z M386.1,86h1.1v4.2h-1.1V86z M388.2,76.5h1.1v3.2l-1.1,4.2
				h-1.1v-3.2L388.2,76.5z M399.8,93.4h1.1c11-5.3,18.8-10.9,23.2-16.9v-2.1c0-2.4-4.2-4.9-12.6-7.4l-6.3,2.1L399.8,93.4z
				 M415.6,131.3v1.1l4.2,4.2C418.4,133.4,417,131.6,415.6,131.3z M424,80.7l-5.3,7.4h1.1l5.3-6.3v-1.1H424z M420.8,67
				c1.4,3.2,2.8,4.9,4.2,5.3v-2.1L420.8,67z M420.8,138.7v1.1l4.2,3.2v-1.1L420.8,138.7z M427.2,73.3l-1.1,5.3h1.1l1.1-1.1v-4.2
				H427.2z M434.5,82.8h2.1l-1.1,3.2h-1.1V82.8z"/>
			<path d="M462.2,55.4h12.6c14.8,2.8,22.1,9.1,22.1,19v6.3l-10.5,14.8h1.1L498,86v2.1c-3.6,8-8.2,13.3-13.7,15.8L478,106v4.2
				c1.5,0,8.9,9.1,22.1,27.4c2.8,1.2,5.6,4,8.4,8.4v1.1l-5.3-4.2v1.1c3.5,3.7,5.3,6.5,5.3,8.4h-1.1l-5.3,3.2h-1.1l-2.1-3.2l-1.1,1.1
				h-1.1c-14.1-11.5-23.9-23.1-29.5-34.8l-5.3-10.5c-2.5,0-3.9,4.2-4.2,12.6c0.5,7,0.1,11.3-1.1,12.8c-2.1,1.7-2.4,3.4-1.1,5.1v2.1
				h-3.2c-1.4,0-2.1-1.4-2.1-4.2h-1.1c0,2.8-1.3,3.9-4,3.2l-4.6-6.2l1.2-9.6v-4.2l6.3-29.5h1.1v4.2h1.1l5.3-22.1
				c-1.4,0-2.1,1.4-2.1,4.2h-1.1v-2.1h-6.3v-1.1c0-1.4,2.1-2.5,6.3-3.2v-1.1h-2.1l-6.3,2.1h-1.1c0-1.4,1.4-2.1,4.2-2.1v-1.1
				c-2.8,0-4.2-1.1-4.2-3.2L462.2,55.4z M447.4,99.7v4.2h1.1v-4.2H447.4z M449.5,86h1.1v4.2h-1.1V86z M451.6,76.5h1.1v3.2l-1.1,4.2
				h-1.1v-3.2L451.6,76.5z M463.2,93.4h1.1c11-5.3,18.8-10.9,23.2-16.9v-2.1c0-2.4-4.2-4.9-12.6-7.4l-6.3,2.1L463.2,93.4z
				 M479,131.3v1.1l4.2,4.2C481.9,133.4,480.5,131.6,479,131.3z M487.5,80.7l-5.3,7.4h1.1l5.3-6.3v-1.1H487.5z M484.3,67
				c1.4,3.2,2.8,4.9,4.2,5.3v-2.1L484.3,67z M484.3,138.7v1.1l4.2,3.2v-1.1L484.3,138.7z M490.6,73.3l-1.1,5.3h1.1l1.1-1.1v-4.2
				H490.6z M498,82.8h2.1L499,86H498V82.8z"/>
			<path d="M527.8,56.3c-0.2,2.1,1.2,3.2,4,3.2l1.9,4.2l-1.1,1.1h1.1c-5,14.9-8.1,32.1-9.2,51.6l-0.4,6.3l1.1,1.1l-0.1,1.1l-1.1,1.1
				h1.1l-1.1,1.1l0.6,7.4l-0.1,2.1c-3.8,4.5-5.7,8.1-5.9,10.5h-4.2l-5.1-2.1l1.5-7.4l-4-4.2l1.9-15.8l1.1-19l2.3-3.2l0.2-4.2l-1-1.1
				l0.1-1.1h2.1l0.1-1.1l-1-1.1l4.3-20h-1.1l1.1-1.1l0.3-6.3l-1-1.1l0.1-1.1L527.8,56.3z M512.7,137.5l-0.3,5.3l2.2-2.1l0.2-3.2
				H512.7z M512.9,95.3l-0.3,6.3h1.1l0.3-6.3H512.9z M514.5,85.9l-0.4,6.3h1.1l0.4-6.3H514.5z M516.1,75.3l-0.4,7.4h1.1l0.4-7.4
				H516.1z"/>
			<path d="M552.2,55.7h4.2l3.2,2.1l7.4-1.1c12.2,0,23.4,7,33.7,21.1l5.3,10.5l-1.1,1.1l1.1,5.3v5.3c0,18.1-14.8,31.8-44.3,41.1
				l-10.5,1.1c0-1.8-1.4-2.8-4.2-3.2v4.2h-3.2v-6.3l-1.1-1.1l1.1-1.1v-1.1c-4.2-2.9-6.3-5.4-6.3-7.4c2.1-31.8,5.6-55,10.5-69.6h1.1
				l1.1,1.1L552.2,55.7z M541.6,136.8h1.1v1.1l-2.1,2.1h-1.1v-1.1L541.6,136.8z M548,66.2l-5.3,30.6v1.1h1.1l5.3-29.5v-2.1H548z
				 M553.2,130.5l1.1,3.2h2.1l2.1-2.1v-1.1h-1.1l-3.2,1.1L553.2,130.5z M564.8,73.6c0,1.4-1.4,2.1-4.2,2.1
				c-2.8,12.8-4.9,27.6-6.3,44.3c4.1,0,14.6-3.5,31.6-10.5v-1.1h-2.1c5.6-5.7,8.4-11.7,8.4-17.9v-3.2c0-7.7-5.3-12.3-15.8-13.7
				H564.8z M561.7,129.4v1.1h4.2l5.3-2.1v-1.1h-1.1L561.7,129.4z M585.9,73.6v1.1l4.2,2.1v-1.1l-3.2-2.1H585.9z M585.9,123.1
				c1.7-0.2,4.1-2.4,7.4-6.3v-1.1L585.9,123.1z M592.2,104.1l-2.1,4.2h1.1l2.1-4.2H592.2z M595.4,88.3l-1.1,12.6h2.1v-3.2l1.1-4.2
				l-1.1-5.3H595.4z M602.8,96.8l-5.3,16.9v1.1h1.1l5.3-15.8v-2.1H602.8z"/>
			<path d="M653.4,57.7l0.9,1.1h1.1l0.1-1.1c11.6,3,17.1,7.2,16.6,12.6l1.4,6.3h-2.1c0.3-2.8-0.3-4.2-1.7-4.2h-1.1l0.6,5.3l-0.2,1.1
				h-2.1c-1.4,0-2-1.1-1.7-3.2l-1.2,1.1h-1.1c-3.5-2.8-6.9-4.2-10.1-4.2c-7,0-15.2,7.4-24.5,22.1l-3.3,11.6c-1,9.3,2.8,16,11.5,20
				l-0.2,2.1h-2.1l-0.1,1.1h2.1c5,0,12.4-6.3,22.1-19l0.1-1.1h-1.1c-5.6,6.7-10.7,11.7-15.3,14.8h-1.1l13.1-13.7h-7.4
				c0.2-1.4-0.8-2.1-2.9-2.1l-0.9-1.1l0.1-1.1c0.1-1.4,3.7-2.5,10.8-3.2l0.2-2.1l-1.2,1.1h-6.3l-5.5-7.4l1.2-1.1l0.1-1.1l11.5,1.1
				l27.7-3.2l0.1-1.1c-3.5,0-5.2-0.7-5-2.1h1.1l0.9,1.1l1.2-1.1h1.1c7.5,2.1,11.1,3.9,11,5.3l-0.1,1.1l-1.2,1.1l-0.1,1.1h4.2
				l-0.2,2.1h-1.1l-17,2.1l-0.1,1.1h1.1l9.6-1.1l-0.2,2.1c-7,0-10.8,2.8-11.5,8.4l-5,16.9l1,1.1l-0.1,1.1l-1.7,5.3l0.2,8.4l-2.3,2.1
				l0.9,1.1c-2.9,0.9-4.5,2.7-4.7,5.3h-3.2c-1.4,0-1.8-3.2-1.1-9.5H658l-0.8,7.4H654l0.6-5.3l-0.2-7.4h-2.1c-4,2.8-8,4.2-12.1,4.2
				h-5.3l-1.8-2.1l0.1-1.1h2.1l0.1-1.1c-14.6,0-22.5-4.9-23.7-14.8c-0.8-4.5-1.2-9.1-1.2-13.6c0-2.8,0.2-5.6,0.5-8.5l0.2-2.1
				c0.6-5.4,3.1-12.4,7.6-21.1h1.1l-0.2,2.1l-4,7.4l-0.1,1.1h1.1c0.7-6.4,7.5-14.5,20.5-24.2h1.1l0.1-1.1h-1.1l-3.3,1.1
				C635.9,59.5,642.4,57.7,653.4,57.7z M624.5,71.4l-0.2,1.1l-4.6,4.2l0.1-1.1L624.5,71.4z M631.7,64h1.1l-8.2,7.4l0.1-1.1L631.7,64
				z M637.3,137.8l-0.1,1.1h5.3l0.1-1.1H637.3z M639.9,124.1h1.1l-2.3,2.1h-1.1L639.9,124.1z M645,134.7l8.9-4.2l0.2-2.1h-1.1
				L645,134.7z M647.2,66.1l-0.1,1.1h7.4l0.1-1.1H647.2z M671.2,88.3h4.2l-2.4,2.1L671.2,88.3z"/>
			<path d="M746.5,56l5.1,3.5c-1.5,6.2-4.2,9.2-8.1,9L716,69.7l-0.1,2.1l5.2,0.4l6.4-0.6l1,1.2l1.1,0.1l7.4-0.6l2.1,0.2l-0.1,1.1
				L714.5,76l-1.9,13.6l1.1,0.1l28.6-2.3l0.9,1.1l-0.1,1.1l-2.1-0.2v1.1l7.3,1.6l-0.1,1.1c-1.5,3.9-11.6,7.1-30.3,9.5l-10.6,0.4
				l1,1.1l-5.1,13.4h-1.1l0.6-9.5l-1.1-0.1l-2,14.6c21-2.8,35.9-3.9,44.6-3.3l5.1,1.4l-0.1,2.1l-2.1-0.1l0.9,1.1l-0.2,3.2
				c-2,2.6-6.3,3.8-12.9,3.3l-0.1,1.1l8.4,0.6l-0.2,2.1l-49,7.2l-1.1-0.1c-3.4-0.7-5.1-1.8-5.1-3.3v-0.2l0.2-3.2l2.9-11.4l-1-1.1
				l2.1,0.1l-0.4,5.3l1.1,0.1c0.4-3.5,1.2-5.2,2.5-5.1l-1-1.2l0.7-10.5l-2.1-0.2l-1.4,5.2l1.2-1l1.1,0.1l-0.4,6.3l-1.1-0.1l0.2-3.1
				l-1.1-0.1l-0.1,2.1l-1.1-0.1l0.1-2.1l3.3-17.8l-1.1-0.1l2.4-5.1l-1-1.1l0.1-1.1l2.3-17.8l1,1.1l1.1,0.1l0.1-2.1l-0.7-5.3l1.7-9.4
				L700,56l1.1,0.1l1,1.1l1.1-1l1.1,0.1l1,1.1l1.1-1l3.2,0.2L746.5,56z M693.7,102l-0.5,7.4l1.1,0.1l0.5-7.3L693.7,102z
				 M728.5,103.4h1.1l-0.1,1.1l-19.1,1.9l-1-1.2l0.1-1l9.5-0.4l-0.1,1.1L728.5,103.4z"/>
			<path d="M345.6,161.9l15.1-0.4c3.5,1.9,5.2,4.7,5.1,8.4l-0.1,1.7c-0.1,5.5-6.2,14.1-18.5,26c6,9.8,11.1,16.8,15.4,20.9h0.7
				c5.6-5.4,10.5-11.2,14.6-17.4c1,0,1.5,0.8,1.4,2.5l-0.8,2.6h0.8l4.5-3.5l0.7,0.8h0.7l3-0.9l0.7,0.9v2.5
				c-3.3,6.8-9.5,13.5-18.4,20l-0.1,0.9l10.4,12.5l-0.1,1.7c-4.9,4.1-10.4,6.2-16.7,6.3c0-1-2.9-3.7-8.9-8.2h-0.7l5.9,6.6v0.9
				l-1.5,1.7l-7.4-7.5l-10.7,4.5l-6-0.7l-6,0.9v0.9c3-0.1,4.5,0.4,4.5,1.6l-7.6,4.5h-1.5c-12.2,0.3-19.9-4.9-23.1-15.6l0.1-3.4
				c0.5-6.4,9.7-17.6,27.7-33.8c-1.9-4.1-3.6-10-5-17.7l1.7-6.8l-0.7-2.5C333.8,165.6,340.6,162,345.6,161.9z M315,230.6l-0.1,4.3
				c0.7,2.2,1.4,3.3,2.2,3.3l-1.4-7.6H315z M318,233.1c2.5,5.6,7.3,8.3,14.2,8.2l7.6-3.6l2.2,0.8l9.1-3.6l0.1-1.7l-0.7,0.1l-2.3,1.7
				h-0.8c-5.2-5.9-10.1-13.5-14.6-22.6l-0.7,0.1C324.8,217.4,320.2,224.3,318,233.1z M334.3,209.8c4.5,10.2,9.4,17.7,14.6,22.6h0.8
				v-0.9c0-1.7-4.9-9-14.7-21.8L334.3,209.8z M338.5,183.3l-0.1,2.5l0.7,3.4l0.7-0.1l0.1-0.8l-0.7-5.1H338.5z M340.8,179.9l1.4,7.6
				c4-2.9,6.6-6.9,7.7-12.1l-1.4-6.8C343.4,171.9,340.9,175.7,340.8,179.9z M357.4,172.7c0,1.9-4.4,8-13.1,18.2v0.9h0.7
				c7.7-7.8,12-13.3,13.1-16.5l0.1-2.5H357.4z M362.1,167.5l-0.1,0.9l0.7,4.2l-0.7,2.6l1.5-1.7l0.1-1.7l-0.7-4.2H362.1z
				 M371.5,231.9v0.9l4.4,5l0.1-0.8L371.5,231.9z"/>
			<path d="M439.1,158l1,1.1v1.1l1.1-1.1h5.3c1.4,0,2.1,1.8,2,5.3h1.1c0.1-2.1,0.8-3.2,2.2-3.2c1.4,0,2.1,1.1,2,3.2l7.4-1.1
				l11.3,2.1l4.2-1.1c5.4,0,9.5,2.8,12.4,8.4l-1.1,7.4l1,1.1v1.1l-2.3,6.3h-1.1l0.1-2.1h-1.1c-5.5,13.2-13.1,22.4-23.1,27.4
				l-17.1,7.4l-0.6,17.9l0.9,5.3c-1.4,0-3.3,3.5-5.6,10.5L438,256h-1.1l-8.3-4.2l1.4-8.4l-3-4.2l2.6-14.8l-1.1-1.1l3.8-20l-1.1-1.1
				l1.1-1.1h2.1l-0.1,4.2h1.1l0.2-5.3l-0.9-3.2h2.1l0.1-5.3l-2-2.1l-0.1,4.2h-1.1c0.2-4.5-1.8-8-6-10.5l-0.9-6.3l0.2-4.2
				c9.2-3.8,13.8-6.2,13.9-7.4l0.1-1.1l-2-2.1l-1.1,1.1l-1-4.2l1.1-1.1H439.1z M432.3,206.5l-0.1,1.1l1,1.1l-1.1,1.1l-0.1,2.1h2.1
				l0.2-5.3H432.3z M475.1,184.4c-2.2,4-11.2,9.9-27,17.9l-1.1,1.1v1.1h2.1c10.4-3.2,19.4-9.9,27-20H475.1z M448.3,199.1h2.1
				c9.1-3.8,17-10.1,23.8-19H471c-14.1,1-21.2,3.1-21.3,6.3L448.3,199.1z"/>
			<path d="M544.9,162.3l5.1,3.5c-1.5,6.2-4.2,9.2-8.1,9l-27.5,1.2l-0.1,2.1l5.2,0.4l6.4-0.6l1,1.2l1.1,0.1l7.4-0.6l2.1,0.2
				l-0.1,1.1l-24.5,2.5L511,196l1.1,0.1l28.6-2.3l0.9,1.1l-0.1,1.1l-2.1-0.2v1.1l7.3,1.6l-0.1,1.1c-1.5,3.9-11.6,7.1-30.3,9.5
				l-10.6,0.4l1,1.1l-5.1,13.4h-1.1l0.6-9.5l-1.1-0.1l-2,14.6c21-2.8,35.9-3.9,44.6-3.3l5.1,1.4l-0.1,2.1l-2.1-0.1l0.9,1.1l-0.2,3.2
				c-2,2.6-6.3,3.8-12.9,3.3l-0.1,1.1l8.4,0.6l-0.2,2.1l-49,7.2l-1.1-0.1c-3.4-0.7-5.1-1.8-5.1-3.3V244l0.2-3.2l2.9-11.4l-1-1.1
				l2.1,0.1l-0.4,5.3l1.1,0.1c0.4-3.5,1.2-5.2,2.5-5.1l-1-1.2l0.7-10.5l-2.1-0.2l-1.4,5.2l1.2-1l1.1,0.1l-0.4,6.3l-1.1-0.1l0.2-3.1
				l-1.1-0.1l-0.1,2.1l-1.1-0.1l0.1-2.1l3.3-17.8l-1.1-0.1l2.4-5.1l-1-1.1l0.1-1.1l2.3-17.8l1,1.1l1.1,0.1l0.1-2.1l-0.7-5.3l1.7-9.4
				l0.2-3.2l1.1,0.1l1,1.1l1.1-1l1.1,0.1l1,1.1l1.1-1l3.2,0.2L544.9,162.3z M492.2,208.4l-0.5,7.4l1.1,0.1l0.5-7.3L492.2,208.4z
				 M527,209.7h1.1l-0.1,1.1l-19.1,1.9l-1-1.2l0.1-1l9.5-0.4l-0.1,1.1L527,209.7z"/>
			<path d="M574,162.8l7.4,6.3c0-2.1,0.7-3.2,2.1-3.2h1.1l14.8,37.9v2.1h-1.1l-2.1-6.3h-1.1v2.1l7.4,17.9h1.1
				c2.8-18.3,6.9-37.3,12.2-57.2l3.2,2.1l3.2-1.1l6.3,3.2v1.1c-2.1,0-3.2,1.4-3.2,4.2h1.1l1.1,1.1h1.1l1.1-5.3h2.1v1.1l-1.1,1.1
				l1.1,1.1v1.1c-5.3,16.2-10,39.5-14.3,69.9h-2.1l2.1-16.9c-1.4,0-3.5,6.7-6.3,20c-2.6,2.1-5.1,3.2-7.4,3.2v2.1h-1.1
				c0-1.4-1.4-2.1-4.2-2.1v-7.4c0-3.2-7-20.7-21.1-52.7h-1.1c-2.8,12.5-5.3,29.4-7.4,50.6l-1.1-1.1c-4.2,1.2-6.3,3-6.3,5.3h-2.1
				c-1.4-2.6-2.1-7.2-2.1-13.7h-1.1v9.5H554l-1.1-5.3c0-19.1,4.2-42.3,12.6-69.6L574,162.8z M559.3,189.2v1.1l1.1,1.1l-1.1,1.1v2.1
				h1.1l1.1-4.2l-1.1-1.1H559.3z M599.3,206c1.8,0,3.2,2.8,4.2,8.4v1.1h-1.1L599.3,206z"/>
			<path d="M666,160.8c1.9,1.4,7.8,2.1,17.7,2.1l-0.1,1.1h-7.4l-0.1,1.1c8.8,0,14.3,2.1,16.5,6.3l-0.1,2.1h-5.3l-0.1,1.1l7.3,1.1
				l-0.1,1.1h-6.3l-0.1,1.1c2.1,0,3.1,0.7,3,2.1c-12.5,0-23.7,4.6-33.5,13.7l-0.1,1.1c13.6,3.6,24.4,11.7,32.3,24.2l-0.1,1.1
				c-2.6,9.1-9.7,17.5-21.5,25.3l-6.4,1.1l-0.1,1.1h2.1c-0.1,1.9-6.5,4-19.3,6.3l0.1-2.1h5.3l0.1-1.1c-4.5,0-8.6-2.5-12.2-7.4
				c-3.1-1.6-4.7-4.7-4.7-9.2c0-0.4,0-0.8,0.1-1.3l3.3-2.1l3,2.1h2.1c19.8-3.1,30.1-9.4,30.7-19c-8.3-4.2-13.8-6.3-16.5-6.3
				l-0.1,1.1l-10.4-4.2l1,1.1l-0.1,2.1c-8.8-6.4-13-11.4-12.8-14.8l8.2-14.8l5.5-4.2l-0.1,2.1L666,160.8z M651.3,248.2l-0.1,1.1h4.2
				l5.3-1.1v-1.1h-1.1L651.3,248.2z M651.7,189.2l-0.1,1.1l18.6-11.6l8.6-2.1l0.1-2.1h-2.1C665.6,178.6,657.3,183.5,651.7,189.2z
				 M657.5,232.4h1.1l2.2-2.1h-1.1L657.5,232.4z M663.3,240.9v1.1h1.1l4.4-3.2L663.3,240.9z M676.5,232.4l-4.5,5.3h1.1l4.5-5.3
				H676.5z"/>
		</g>
		<g>
			<g>
				<path d="M713.2,176.9h-2.7v-12.9h-4.9v-2.5h12.5v2.5h-4.9V176.9z"/>
				<path d="M728.6,173.2L728.6,173.2l-4.9-7.2v11h-2.7v-15.4h2.9l4.7,7.3l4.7-7.3h2.9v15.4h-2.7v-11L728.6,173.2z"/>
			</g>
		</g>
		<g>
			<g>
				<path d="M375.7,313.9c-10.7,0-17.8-7.7-17.8-17.7c0-9.7,7.4-17.8,17.7-17.8c6,0,9.7,1.7,13.2,4.7l-3.8,4.6
					c-2.6-2.3-5.2-3.7-9.6-3.7c-6.3,0-11.1,5.5-11.1,12.2c0,7.1,4.7,12.3,11.7,12.3c3.2,0,6.2-1,8.3-2.6v-6.4h-8.8v-5.2H390v14.4
					C386.6,311.5,381.8,313.9,375.7,313.9z"/>
				<path d="M428.9,298.8v14.5h-6V279h6v14.3h16.4V279h6v34.3h-6v-14.5H428.9z"/>
				<path d="M517.3,313.3H511l-3.5-8.3h-16.2l-3.5,8.3h-6.2l15.1-34.6h5.6L517.3,313.3z M499.3,285.9l-5.9,13.7h11.8L499.3,285.9z"
					/>
				<path d="M571.6,279h5.9v34.3h-5.1l-18.9-24.4v24.4h-5.9V279h5.6l18.4,23.7V279z"/>
				<path d="M643.5,313.3h-6.4l-3.5-8.3h-16.2l-3.5,8.3h-6.2l15.1-34.6h5.6L643.5,313.3z M625.5,285.9l-5.9,13.7h11.8L625.5,285.9z"
					/>
			</g>
			<rect x="241.9" y="294.3" width="89.3" height="3.6"/>
			<rect x="663.6" y="294.3" width="89.3" height="3.6"/>
		</g>
		<g>
			<path class="st3" d="M1.5,247.6c0-0.1-0.1-0.3-0.1-0.4C1.5,247.3,1.5,247.5,1.5,247.6z"/>
			<path class="st3" d="M180.9,216.6c-0.2-0.2-0.4-0.5-0.5-0.8C180.5,216.2,180.7,216.4,180.9,216.6z"/>
			<path class="st3" d="M1.4,247c0-0.2,0-0.4,0-0.7C1.3,246.5,1.4,246.8,1.4,247z"/>
			<path class="st3" d="M1.4,245.6c0,0.2,0,0.5,0,0.7C1.3,246.1,1.4,245.8,1.4,245.6z"/>
			<path class="st3" d="M181.8,217.1c-0.3-0.1-0.5-0.2-0.7-0.3C181.4,217,181.6,217.1,181.8,217.1z"/>
			<path class="st3" d="M182.2,217.2c0.4,0.1,0.8,0.1,1.3,0C183,217.3,182.6,217.3,182.2,217.2z"/>
			<path class="st4" d="M24.1,140.5c-0.1-0.1-0.2-0.2-0.3-0.3C23.9,140.3,24,140.4,24.1,140.5z"/>
			<path class="st4" d="M24.5,140.7c-0.1,0-0.2-0.1-0.3-0.2C24.3,140.6,24.4,140.7,24.5,140.7z"/>
			<path class="st4" d="M23.5,139.8c0.1,0.1,0.1,0.3,0.2,0.4C23.7,140.1,23.6,140,23.5,139.8z"/>
			<path class="st4" d="M171.5,115.1c1.5-0.2,1.9-0.8,1.7-2.2C173.4,114.3,173,114.9,171.5,115.1z"/>
			<path class="st4" d="M177.8,141c0.2,0.5,0.5,1.1,0.9,1.6l0,0C178.3,142,178,141.5,177.8,141z"/>
			<path class="st4" d="M173,112.1c0.1,0.3,0.1,0.5,0.2,0.8C173.1,112.7,173.1,112.4,173,112.1z"/>
			<g>
				<path class="st5" d="M55.3,223.9c-1-2.2-1.2-5.1,0.6-7.9c0.1-2.1,0.9-4.2,2.5-6c1.3-1.5,4.9-4.9,10.7-10.2
					c2.3-2.2,5.2-4.8,6.2-5.9c0.3-0.4,0.6-0.9,1-1.6c9.6-15.3,12.5-20.6,13.2-22.4c0.3-0.8,0.5-2.2,0.5-3.6c-1,0.7-2.2,1.5-3.7,2.4
					c-5.8,3.6-21.6,13.4-26.4,17.3c-4.8,3.9-6.7,6.4-7.9,8.1l-0.6,0.8c-0.5,0.7-2.1,2.8-10,7.4c-0.9,0.7-2.2,1.6-3.8,2.1l-1.1,0.3
					l-1.3,0c-1,0-2-0.2-2.9-0.5l-0.2,0.1l-1.2,0c-3.6,0-6.6-2.4-8.2-6.3c-0.4-1.1-0.7-2.4-0.8-3.5c-0.3,0.8-0.6,1.7-1.1,2.4
					c-2.8,4.9-5.6,9.7-5.5,15.7c0,0.8-0.2,1.5-0.4,2.3c0.3-0.2,0.5-0.5,0.9-0.7c3.2-1.7,6.6-0.8,9.9,0c5.7,1.4,10-1.9,15.6-1.4
					c3.5,0.3,6.5,1.6,10,1.6c-9.6,1.6-19.1,3.1-28.7,4.9c-1.6,0.3-3.4,0.5-5.3,0.7c-1.2,0.1-2.5,0.2-3.8,0.2c-0.3,1.7-0.2,3.3,0.6,5
					c0.2,0.3,0,1.2-0.2,1.3c-2.9,1.6-2.8,5.2-5.2,7.4c-1.2,1.2-2.3,2.6-3.2,4.1c-0.6,2.2-2.6,4.9-4,7.4c0,0.1,0,0.1,0,0.2
					c7.7,0.4,15.1-0.2,22.7-3c11.8-4.3,23.4-9.2,35.4-12.7C57.2,227,55.7,224.7,55.3,223.9z"/>
				<path class="st5" d="M25.1,140.8c3.7,0.4,3.9,3.7,5.2,6c0.6,1,1.3,2.8,0,4.2c-0.2,0.2,0.4,1.6,0.6,1.6c1.5,0.1,1.4,1.2,1.5,2.2
					c1.1,6.5,2.1,13,3.2,19.5c0.1,0,0.2-0.1,0.3-0.1c1.4-0.5,3.4-0.9,5.3-1.1c12.2-12.6,22.4-19.5,25.4-21.4
					c1.1-0.7,8.1-6.3,9.4-7.4c0.7-0.6,1.5-1.1,2.4-1.6c0.4-0.2,0.9-0.5,1.3-0.8c0.7-0.9,2-2.3,4.9-5.1c-0.7-1.1-1.1-2.3-1.3-3.5
					c0,0-0.1-0.1-0.1-0.1c-5.7,0.3-11.5-0.2-17.3-0.3c-7.2-0.1-15.1-2.5-22.3-1.9c-3.6,0.3-7.5,2.9-10.8,4.5
					c-3.1,1.4-6.2,2.8-9.4,4.1C23.8,140.4,24.2,140.7,25.1,140.8z"/>
				<path class="st5" d="M189.9,173.1c-0.4-1.3-1.3-2.5-2-3.7c-0.5-0.9-1-1.7-1.5-2.5c-0.3-0.5-0.5-1.3-0.9-1.6
					c-1.6-1.2-3.1-2.7-4.9-3.5c-3.2-1.4-4.5-4.2-6-6.9c-1-1.9-0.4-2.9,1.8-2.9c1.5,0,2.3-0.7,3.2-1.8c1.5-2.1,1-4.1,0-6.1
					c-0.6-1.1-1.3-2.1-1.8-3.2c-0.3-0.7-0.4-1.6-0.2-2.2c0.6-1.7,1.5-3.3,2.2-5c0.2-0.5,0.7-1.2,0.5-1.6c-1.3-2.3,0.5-3.9,1.3-5.7
					c1.2-2.7,1-4.3-0.7-5.7c-0.8-0.7-1.6-1.4-2.4-2.2c-1.9-1.7-6.4-1.4-7.9,0.6c-0.9,1.1-2,1.9-3.4,1.3c1-0.9,1.8-1.7,2.6-2.5
					c-0.8-0.8-1.6-1.6-2.6-2.6c1.3-0.1,2.4-0.1,3.5-0.2c2.4-0.1,3-0.8,2.3-3.1c-4.1,0.7-8.3,1.5-12.3,2.2c-6.3,1.1-12.7,2-19.2,3.1
					c-0.6,1.4-1.3,2.9-2.1,4.4c0,1.7,0.1,4.6,0.3,6.1c0.2,0.2,0.3,0.4,0.5,0.7c2.9,3.6,8.9,11.2,9.5,20.9c0.6,10-2.6,15.4-4.4,17.7
					c-0.6,2.4-1.9,8.1-2.2,11.6c-0.3,4.1-2.2,12.8-4.2,21.6c0,0.2-0.1,0.3-0.1,0.5c0.7,1.4,1.8,3.7,3,5.7l0.2,0.3l0.1,0.3
					c1.7,3.9,3.2,8.3,4.3,12.6c8.5,0.6,17.5-2.2,26-3.3c2.6-0.3,5.3-0.6,8-0.9c-0.1-0.4-0.2-0.9-0.1-1.5c0.1-2.2-0.4-4.7,2.2-6.1
					c0.2-0.1,0.3-0.5,0.4-0.7c1.9-5,3.5-10,1.7-15.4c-0.2-0.7-0.1-1.6-0.1-2.4c0.1-2.6,0.4-5.2,0.2-7.7c-0.2-2.7,0.9-4.1,3.3-4.9
					C189.8,176.4,190.5,174.9,189.9,173.1z"/>
				<polygon class="st3" points="180.3,215.7 180.3,215.7 180.3,215.7 				"/>
			</g>
			<g>
				<g>
					<g>
						<path class="st6" d="M100.7,320.9c-0.5-1.6-0.9-2.7-1.2-3.5c-2.7-1.7-7-4.5-8.2-9.2c-1.4-5.3,1.9-8.6,2.9-9.7
							c0.6-0.6,1-1,1.6-2.5c1-2.8,0.9-6,0.5-12.3c-0.1-2-0.3-4.1-0.4-6.6c-0.5-10.6,0.9-16.5,1.8-20l0.2-0.8c0-0.1,0-0.2,0-0.4
							c-1.3-0.5-2.5-1-3.7-1.5c-1.9,2.1-3.6,3.5-4,3.8c-0.7,0.5-1.9,2-2.2,2.6c-1,2-13.3,22.5-14.7,24.8c-0.9,1.5-1.1,3.3-1.3,5
							c-0.1,0.5-0.1,1.1-0.2,1.5c-0.2,1.2-0.5,2.3-0.9,3.7c-0.5,1.9-1.2,4.3-1.3,6.4c-0.1,1.2,0,3.6,1,7.2c0.4,1.3,1.3,4.6-0.6,7.8
							c-1.2,2-3.1,3.4-5.4,4c-0.9,0.2-1.8,0.3-2.7,0.3c-2,0-3.9-0.5-5.5-1.5c-0.2,0-0.4,0-0.6-0.1c-2-0.2-3.4-1.1-4.3-1.9
							c-1.2-0.4-2.2-1-3.2-1.8c-1.9-0.6-3.4-1.8-4.5-3.4c-2.1-3.3-1.3-7-0.8-8.9c0.3-1.3,0.9-3,2.3-6.8c0.6-1.6,1.2-3.1,1.4-3.9
							c0.3-1,0.9-4.5,0.9-5.5c-0.1-3.9,2.4-6.5,4.1-7.9c0.9-1.1,1-1.4,1.2-3.1c0.4-2.6,1-6.6,3.7-14.1c4.6-12.8,7.7-16.8,10.3-19.6
							l0.3-0.3c0.3-0.4,0.9-1.6,1.7-3.1c-3.6-3.3-6.8-6.9-9.2-9.9c-12,3.5-23.6,8.4-35.4,12.7c-7.6,2.8-15.1,3.4-22.7,3
							c-0.1,0.9,0,2,0.4,2.5c0.9,1.1,0.5,1.8,0.1,2.6c-1.1,1.9-1.6,3.6-1,6c1.5,6.5,2.5,13.1,5.8,19.1c0.4,0.8,0.5,1.8,0.8,2.7
							c0.8,3,1.5,6.2,2.6,9.1c0.7,2,1.1,3.9,0.9,6.1c-0.4,3.9-0.3,3.9,3.4,4.6c0,0.2,0,0.4,0,0.6c0,1.2,0.1,2.4,0.1,3.6
							c0.3,0,0.6-0.1,1-0.1c1-0.1,1.9-0.2,2.8-0.5c1.1-0.4,5,0.8,5.2,2c0.5,3.3,0.9,6.6,1.3,10c-1.9-0.3-1.8,1.2-1.5,2.5
							c0.4,2.2,1.1,4.3,1.6,6.5c0.2,0.8,0.4,1.9,0.1,2.4c-0.4,0.4-1.6,0.5-2.3,0.3c-2-0.7-3.7-0.5-5.6,0.4c-0.9,0.4-2.3,0.3-3.2-0.2
							c-2.5-1.4-4.2-1.5-7.1,0.9c1.3,0.6,2.2,1.3,3.2,1.5c2.7,0.6,5.5,1,8.3,1.6c7.8,1.6,15.6,3.1,23.3,4.8c2,0.4,4,1.2,5.7,2.4
							c2.9,1.9,5.4,4.3,8.1,6.4c0.6,0.4,1.5,0.6,2.2,0.7c2.3,0.1,4.2-0.8,5.9-2.2c1.3-1,2.6-2.1,4.2-2.6c4-1.2,7-4.2,10-6.7
							c1.8-1.5,3.1-2.7,5.4-2.5c0.5,0,0.9-0.3,1.4-0.4c3.2-0.8,6.4-1.5,9.6-2.4c1.6-0.4,3.6-0.5,4.8-1.5c1-0.7,2-1.3,3-1.7
							C101.4,323,101,321.9,100.7,320.9z"/>
					</g>
					<g>
						<path class="st6" d="M210.9,276c-2.9,0.5-4.8-1.1-6.2-3.4c-0.6-0.9-0.8-2-1.3-2.9c-0.4-0.6-1.1-1.4-1.6-1.4
							c-2.4,0.1-4.3-0.7-5.9-2.6c-0.5-0.6-1.3-0.8-2-1.1c-2.3-0.9-3.8-3.9-3.5-6.4c0.1-0.7-0.4-2.1-0.9-2.3c-2.8-0.6-3.5-2.4-3.2-5
							c0.2-1.6-0.1-3-2.1-3.4c-0.1,0-0.2-0.1-0.3-0.2c-4.4-0.1-8.2,2.1-13,1.7c-3.5-0.3-6.5-1.6-10-1.6c7-1.2,14-2.3,20.9-3.5
							c-0.2-0.4-0.5-0.9-0.4-1.3c0.3-1.4,1.1-2.8-0.5-3.9c-0.1,0,0.5-1.2,0.9-1.5c1.3-0.8,2.1-1.6,2.3-3.3c0.6-3.5,1.7-6.9,2.3-10.4
							c0.3-1.6,0.1-3.3-0.2-4.9c-0.3-1.3-1.3-2-2.8-1.8c-1.7,0.3-2.8-0.2-3.2-1.5c-2.7,0.3-5.4,0.6-8,0.9c-8.4,1-17.5,3.8-26,3.3
							c1.6,6.1,2.6,12.1,2.8,16.4c0.5,10.3-6.2,16.5-8.7,18.8c-1.3,1.2-3.5,3.2-14,4.2c-0.2,0.6-0.4,1-0.7,1.5c0,0,0,0,0,0
							c0,0-0.6,1.5-0.6,5.5c-0.1,7-3.2,23.3-4,25.8c-0.5,1.9-1.3,9.1-0.9,11.3c1.2,3.2,1.9,7.1,2.4,10.7c0.2,0.1,0.5,0.3,0.7,0.4
							c0.5,0.3,0.9,0.5,1.3,0.8c0.4,0.2,0.7,0.5,1.1,0.8c1.2-0.5,2.4-0.9,3.6-1.3c1.7-0.6,3.1-1.3,4.3-2.6c1.9-2,4-3.6,6.9-4.1
							c2.9-0.6,5.7-1.6,8.4-2.6c1.5-0.5,2.8-1.9,4.2-2c1.9-0.1,3-1.1,4.2-2.3c0.6-0.6,1.2-1.4,1.9-1.7c6.7-3.3,13.6-5,21.3-3.9
							c5.5,0.7,11.2,0.1,16.8,0c2.6,0,4.2-1.7,4.9-3.9c1.6-4.9,4.2-8.8,8.7-11.4c0.4-0.2,0.7-0.5,1-0.9c0.5-0.8,0.9-1.7,1.5-2.8
							C212.2,276.2,211.5,275.9,210.9,276z"/>
					</g>
				</g>
			</g>
			<path d="M152.7,46.8c-0.3-0.9-1.4-0.8-1.9-0.5c-0.5,0.3-1.9,1.4-2.6,1.2c-0.6-0.2-0.6-2.3-0.2-3.3c0.4-1,1.7-4.1,0.8-5.7
				c-1-1.6-2.3-0.6-2.3-0.2c0.1,0.4,0,1.3,0,1.3s-0.9,3.4-1.4,4c-0.6,0.6-0.8-0.4-1.2-1c-0.4-0.6-3.5-4.5-3.9-6.2
				c-0.4-1.6-0.8-4.1-1.4-4.6c-0.7-0.5-1.6-0.2-1.6,0.2c0,0.4,0.2,2.3,0.2,2.3s1.8,6.9,2.5,8.6c0.7,1.7,1.5,10,0.5,13.6
				c-0.9,3.6-1.4,6.1-1.4,6.1s-6.7,16.7-6.8,20.6c-0.1,3.9-0.9,9.1-1.3,10.6c-0.4,1.5-2.2,6.8-2.4,7.5c-0.2,0.7-3.2,7.8-4.9,8.9
				c-1.7,1.1-1.6,2.2-1.7,1.1c-0.1-1.1,0.1-5-1.4-5.9c-1.5-0.9-1.5-0.9-1.5-0.9s-0.3-1.9-1.2-2.4s-4.4-0.3-4.9-0.6
				c-0.4-0.3-1-1.4-1.6-2.2c-0.7-0.7-2.9-2.7-4-3.5c-1.1-0.8-0.1-1.1-0.7-1.3c-0.6-0.2-6.2-2.6-11.6-0.4c-0.8-0.8-2.2-1.3-3.3-1.3
				c-1.7,0-3.1,1.1-3.1,2.6c0,1.3,0.2,2.1,0.5,2.4c-0.7,0.6-1.5,1.3-2.2,2c-0.3-0.1-0.7-0.2-1-0.2c-1,0-1.8,0.7-1.8,1.5
				c0,0.9,0.2,1.3,0.4,1.5c-1,0-1.8,0.7-1.8,1.5c0,0.6,0.1,1,0.2,1.2c-0.5,0.9-0.9,1.9-1.2,2.8c-0.1,0-0.3,0-0.4,0
				c-1.7,0-3,1.1-3.1,2.6c0,1.1,1.4,2.8,2.8,3.4c0.2,1.6,0.6,3.1,1.3,4.7c-1.1,0.8-1.5,2.2-0.9,3.3c0.6,1.1,2.5,2.1,4,1.9
				c1.8,2.4,4,4.5,6.2,6.1c-0.6,1-0.6,2.3,0.1,3.2c1,1.1,4.4,1.4,5.6,0.3c-0.1,0.8-5,6.8-5,6.8s-5.6,5-6.3,6.3
				c-0.7,1.3-3.8,2.7-4.7,3.4c-0.9,0.8-9,7.1-10.1,7.8c-1.1,0.7-12.4,7.8-26,22.3c0,0-4.5,0.2-6,0.8c-1.6,0.6-6.9,4.4-7.5,5
				c-0.6,0.5-2.2,1.9-2.3,2.7c-0.1,0.8,0.1,3.5,0.5,3.9c0,0,0,1.8,0.4,2.6c0.3,0.9,0.9,1.6,1.3,1.5c0.4-0.1,3.2-3.7,3.4-4.7
				c0.2-1,4.3-1.5,4.9-1.3c0.6,0.2,0.8,0.7,0.3,1.1c-0.4,0.3-4.2,2.8-4.5,3.4c-0.4,0.6-0.5,2.2,0.3,2c0.9-0.3,1.6-1,1.6-1
				s7.2-4.1,8.5-5.9c1.3-1.7,3.4-5.1,9.8-10.2c6.3-5.1,27-17.7,27-17.7s7-4.6,7.8-5.3c0.7-0.8,2.5-0.9,2.8-0.5
				c0.3,0.4,4.5,6,4.6,7.5c0.1,1.5,0.2,5.5-1,8.5c-2.2,5.6-14.8,25.1-15.1,25.8c-0.4,0.7-15.1,14-17.2,16.4c0,0-1,1.2-0.5,1.9
				c0.5,0.7,0.7,1.6,0.7,1.6s-2.6,1.4-2.2,2.3c0.4,0.9,7.7,11.1,16,17.1c0,0-3.9,7.9-5.1,9.6c-1.2,1.7-4.1,3.2-9.5,17.9
				s-1.5,13.8-6.8,20.1c0,0-1.8,1.1-1.7,2.3c0,1.2-0.6,5.9-1.2,7.8c-0.6,1.9-3.2,8.6-3.6,9.9c-0.3,1.3-0.9,3.4,0.3,3.7
				c1.2,0.2,2,0.8,2.2,1c0.1,0.2,0.7,1,1.7,1c1.1,0,1.5,1.4,2.2,1.5c0.7,0.1,2.5,0,2.5,0s0.5,0.6,0.9,0.9c0.4,0.4,1.5,0.8,2.7,0.5
				s0.9-1.6,0.6-2.5c-0.3-0.9-1.5-5.3-1.3-9.6c0.2-4.4,2-8.7,2.3-10.8c0.3-2.1,0.4-5.8,2.5-9.3c2.1-3.5,13.7-22.8,14.4-24.2
				c0.7-1.5,2.7-3.9,4.3-5.1c1.6-1.2,4.8-4.5,5.8-7.6c0,0,7.6,4.1,12.8,5.4c0,0,1.6,4.8,0.9,7.9c-0.7,3.1-2.2,8.3-1.8,18.8
				c0.5,10.5,1.5,16.1-0.6,21.8c-2.1,5.7-4.9,5.2-4.3,7.7c0.6,2.5,5.3,4.8,6.4,5.7c1.1,0.9,2.5,5.1,3,6.6c0.5,1.5,1.7,4.8,3.8,5.8
				c2.1,1,3.5,1.6,3.8,1.1c0.3-0.6,1.5,0.6,2.5,0.2c1-0.4,1.4-0.5,2.2-0.6c0.8-0.1,2.1-0.2,2.3-0.9c0.2-0.6-0.4-2-1.8-2.9
				c-1.4-0.9-4.7-2.4-5.1-4.3c-0.3-1.9-0.9-7.9-2.3-11.4c-1.4-3.5,0.3-14.5,0.9-16.2c0.5-1.6,3.5-17.1,3.6-23.5
				c0.1-6.4,1.3-8.6,1.6-9.2c0.4-0.6,0.6-4.7,0.6-4.7s13.2-0.6,15.3-2.6c2.2-2,6.8-6.1,6.5-13.1c-0.3-6.9-2.8-18.2-6.4-26.3
				c0,0-4.3-7.9-4.2-8.9c0.2-1,4.2-17.8,4.6-23.1c0.4-5.2,2.5-13.7,2.8-14.4c0.3-0.7,4.3-4,3.7-13.9c-0.6-9.9-8.8-17.2-9.6-19.2
				c-0.7-1.9-0.8-10.5-0.6-11c0.2-0.6,6.1-11.7,7.7-20.4c0,0,1.9-6.1,2.2-6.9c0.3-0.8,1.4-3.9,1.5-5.3c0.1-1.4,3.5-17.1,3.9-28.9
				c0,0,2.5-3.3,2.2-7.4c0,0,0.9-1.4,1.7-1.8C152.1,48.7,152.9,47.7,152.7,46.8z"/>
			<g>
				<g>
					<g>
						<path class="st7" d="M174.1,90.4c-1.9-1.1-2.1-2.5-1.6-4.3c0.5-1.9,1-3.7,1.4-5.6c0.1-0.6,0-1.2,0-2c-2.5,0.6-3.6-0.7-4-2.7
							c-0.3-1.8-1.3-2.1-2.9-2c-3.2,0.1-3.5-0.2-4.4-3.3c-0.1-0.4-0.1-0.9-0.3-1.3c-0.3-0.6-0.6-1.3-1.2-1.6c-2-1.2-4-2.2-6.1-3.3
							c-0.2-0.1-0.4-0.3-0.7-0.4c-0.7,8.4-2.3,17.1-3.2,21.7c-0.2,1.1-0.4,2-0.4,2.4c-0.2,1.9-0.9,4.1-1.9,6.8
							c-0.3,1-1.6,5.1-2.1,6.4c-0.9,4.5-2.7,9.9-5.5,16.1c6.5-1,12.9-2,19.2-3.1c4-0.7,8.2-1.5,12.3-2.2c0,0,0,0,0-0.1
							c-0.5-2-1.8-4-1.8-5.9c0-2.5,0.5-5.1,1.5-7.3c0.8-1.7,1-2.9-0.1-4.4C175.2,93.2,175.9,91.4,174.1,90.4z"/>
					</g>
					<g>
						<path class="st7" d="M23.2,83.3c-1.9,3.8-1.9,7.4,0.6,11c0.3,0.5,0.5,1.4,0.3,2c-0.9,2.2-0.9,4.2,0.7,6
							c-0.4,0.5-0.7,0.9-1,1.3c-2.3,2.8-2.2,2.9-0.4,6.2c0.4,0.7,0,1.9,0.1,2.8c0,1-0.1,2.1,0.3,2.9c0.5,0.9,1.5,1.6,2.2,2.3
							c1.7,1.5,1.9,5.4,0.4,7.2c-0.3,0.4-0.6,1.1-0.5,1.5c0.6,1.2,1.3,2.3,2.1,3.5c-1.7,2.2-4.6,3.5-4.7,7.4c0,1,0,1.9,0.3,2.5
							c3.1-1.3,6.3-2.7,9.4-4.1c3.4-1.5,7.2-4.2,10.8-4.5c7.1-0.6,15,1.8,22.3,1.9c5.7,0.1,11.5,0.6,17.3,0.3
							c-0.8-0.7-1.5-1.5-2.2-2.3c-2.9-0.9-5.5-2.9-6.8-5.5c-1.1-2.3-1.3-4.9-0.6-7.3c-1.9-2-3.3-4.6-3.3-7.6
							c0.1-3.5,1.9-6.5,4.7-8.2c0.2-1.2,0.7-2.3,1.4-3.3c0.4-1.6,1.2-3,2.4-4.2c0.6-0.6,1.4-1.2,2.1-1.6c0.5-2.1,1.6-4,3.3-5.4
							c1.9-1.6,4.4-2.5,6.9-2.5c1.3,0,2.8,0.3,4.3,0.8c1.3-0.3,2.7-0.4,4.2-0.4c3.1,0,6.4,0.7,9.4,1.8c1.8,0.7,3.2,2,4,3.5
							c1.3,1.1,2.7,2.3,3.3,3c0.1,0.1,0.1,0.1,0.2,0.2c1.4,0.1,2.9,0.4,4.2,1c0.5,0.2,0.9,0.5,1.3,0.8c0.5-1.6,1.2-3.7,1.4-4.3
							c0.2-0.9,1-5.5,1.1-8.8c0.1-4.2,3.9-14.5,7.1-22.6c0.2-1.1,0.7-3.2,1.4-5.8c0.4-1.7,0.1-7.4-0.4-9.2c-0.1-0.2-0.2-0.5-0.3-0.8
							c-1,0.8-2.1,1.3-3.2,2c-1.1,0.7-2.1,1.5-3.3,2.4c0.1,0.1-0.1-0.2-0.4-0.4c-1.1-0.8-2.1-2.1-3.3-2.4c-1.8-0.5-3.8-0.7-5.6-0.2
							c-2.6,0.7-5,0.2-7.5,0c-4.6-0.3-9.2-0.2-13.8-0.1c1.4,1.1,2.4,2.7,2.4,5.2C89.2,53.7,79,50,70.6,49c-3.4-0.4-6.7-1.9-9.9-2.3
							c-9.6-1-20,1.5-29.7,3.2c-3.8,0.7-7.7,1.3-11.7,1.9c-0.4,0.7-0.8,1.4-1.1,2.2c-0.5,1.1-0.8,2.3-1.5,3.3
							c-1.1,1.5-2.3,2.8-0.5,4.3c-0.5,1.1-1.5,2.6-1.2,3c2.4,3.2,1.8,8.5,7.4,9.7c-2.5,1.1-3.4,2.8-2.7,4.6c0.6,1.5,2.2,2.6,3.5,4
							C23.3,82.9,23.3,83.1,23.2,83.3z"/>
					</g>
				</g>
			</g>
		</g>
	</g>
</g>
</svg>
