<svg width="840" height="344" viewBox="0 0 840 344" fill="none" xmlns="http://www.w3.org/2000/svg">
<path d="M185.4 43.6L168.3 52.6L171.6 33.6L157.8 20.1L176.9 17.3L185.4 0L193.9 17.3L213 20.1L199.2 33.6L202.5 52.6L185.4 43.6Z" fill="black"/>
<path d="M729.6 194.4H726.9V181.5H722V179H734.5V181.5H729.6V194.4Z" fill="black"/>
<path d="M745 190.7L740.1 183.5V194.5H737.4V179.1H740.3L745 186.4L749.7 179.1H752.6V194.5H749.9V183.5L745 190.7Z" fill="black"/>
<path d="M375.7 313.9C365 313.9 357.9 306.2 357.9 296.2C357.9 286.5 365.3 278.4 375.6 278.4C381.6 278.4 385.3 280.1 388.8 283.1L385 287.7C382.4 285.4 379.8 284 375.4 284C369.1 284 364.3 289.5 364.3 296.2C364.3 303.3 369 308.5 376 308.5C379.2 308.5 382.2 307.5 384.3 305.9V299.5H375.5V294.3H390V308.7C386.6 311.5 381.8 313.9 375.7 313.9Z" fill="black"/>
<path d="M428.9 298.8V313.3H422.9V279H428.9V293.3H445.3V279H451.3V313.3H445.3V298.8H428.9Z" fill="black"/>
<path d="M517.3 313.3H511L507.5 305H491.3L487.8 313.3H481.6L496.7 278.7H502.3L517.3 313.3ZM499.3 285.9L493.4 299.6H505.2L499.3 285.9Z" fill="black"/>
<path d="M571.6 279H577.5V313.3H572.4L553.5 288.9V313.3H547.6V279H553.2L571.6 302.7V279Z" fill="black"/>
<path d="M643.5 313.3H637.1L633.6 305H617.4L613.9 313.3H607.7L622.8 278.7H628.4L643.5 313.3ZM625.5 285.9L619.6 299.6H631.4L625.5 285.9Z" fill="black"/>
<path d="M331.2 294.3H241.9V297.9H331.2V294.3Z" fill="black"/>
<path d="M752.9 294.3H663.6V297.9H752.9V294.3Z" fill="black"/>
<path d="M1.49994 247.6C1.49994 247.5 1.39994 247.3 1.39994 247.2C1.49994 247.3 1.49994 247.5 1.49994 247.6Z" fill="#FED118"/>
<path d="M180.9 216.6C180.7 216.4 180.5 216.1 180.4 215.8C180.5 216.2 180.7 216.4 180.9 216.6Z" fill="#FED118"/>
<path d="M1.39994 247C1.39994 246.8 1.39994 246.6 1.39994 246.3C1.29994 246.5 1.39994 246.8 1.39994 247Z" fill="#FED118"/>
<path d="M1.39994 245.6C1.39994 245.8 1.39994 246.1 1.39994 246.3C1.29994 246.1 1.39994 245.8 1.39994 245.6Z" fill="#FED118"/>
<path d="M181.8 217.1C181.5 217 181.3 216.9 181.1 216.8C181.4 217 181.6 217.1 181.8 217.1Z" fill="#FED118"/>
<path d="M23.4999 139.8C23.5999 139.9 23.5999 140.1 23.6999 140.2C23.6999 140.1 23.5999 140 23.4999 139.8Z" fill="#CF1428"/>
<path d="M177.8 141C178 141.5 178.3 142.1 178.7 142.6C178.3 142 178 141.5 177.8 141Z" fill="#CF1428"/>
<path d="M173 112.1C173.1 112.4 173.1 112.6 173.2 112.9C173.1 112.7 173.1 112.4 173 112.1Z" fill="#CF1428"/>
<path d="M55.2999 223.9C54.2999 221.7 54.0999 218.8 55.8999 216C55.9999 213.9 56.7999 211.8 58.3999 210C59.6999 208.5 63.2999 205.1 69.0999 199.8C71.3999 197.6 74.2999 195 75.2999 193.9C75.5999 193.5 75.8999 193 76.2999 192.3C85.8999 177 88.7999 171.7 89.4999 169.9C89.7999 169.1 89.9999 167.7 89.9999 166.3C88.9999 167 87.7999 167.8 86.2999 168.7C80.4999 172.3 64.6999 182.1 59.8999 186C55.0999 189.9 53.1999 192.4 51.9999 194.1L51.3999 194.9C50.8999 195.6 49.2999 197.7 41.3999 202.3C40.4999 203 39.1999 203.9 37.5999 204.4L36.4999 204.7H35.1999C34.1999 204.7 33.1999 204.5 32.2999 204.2L32.0999 204.3H30.8999C27.2999 204.3 24.2999 201.9 22.6999 198C22.2999 196.9 21.9999 195.6 21.8999 194.5C21.5999 195.3 21.2999 196.2 20.7999 196.9C17.9999 201.8 15.1999 206.6 15.2999 212.6C15.2999 213.4 15.0999 214.1 14.8999 214.9C15.1999 214.7 15.3999 214.4 15.7999 214.2C18.9999 212.5 22.3999 213.4 25.6999 214.2C31.3999 215.6 35.6999 212.3 41.2999 212.8C44.7999 213.1 47.7999 214.4 51.2999 214.4C41.6999 216 32.1999 217.5 22.5999 219.3C20.9999 219.6 19.1999 219.8 17.2999 220C16.0999 220.1 14.7999 220.2 13.4999 220.2C13.1999 221.9 13.2999 223.5 14.0999 225.2C14.2999 225.5 14.0999 226.4 13.8999 226.5C10.9999 228.1 11.0999 231.7 8.69994 233.9C7.49994 235.1 6.39994 236.5 5.49994 238C4.89994 240.2 2.89994 242.9 1.49994 245.4C1.49994 245.5 1.49994 245.5 1.49994 245.6C9.19994 246 16.5999 245.4 24.1999 242.6C35.9999 238.3 47.5999 233.4 59.5999 229.9C57.1999 227 55.6999 224.7 55.2999 223.9Z" fill="#FDC500"/>
<path d="M25.0999 140.8C28.7999 141.2 28.9999 144.5 30.2999 146.8C30.8999 147.8 31.5999 149.6 30.2999 151C30.0999 151.2 30.6999 152.6 30.8999 152.6C32.3999 152.7 32.2999 153.8 32.3999 154.8C33.4999 161.3 34.4999 167.8 35.5999 174.3C35.6999 174.3 35.7999 174.2 35.8999 174.2C37.2999 173.7 39.2999 173.3 41.1999 173.1C53.3999 160.5 63.5999 153.6 66.5999 151.7C67.6999 151 74.6999 145.4 75.9999 144.3C76.6999 143.7 77.4999 143.2 78.3999 142.7C78.7999 142.5 79.2999 142.2 79.6999 141.9C80.3999 141 81.6999 139.6 84.5999 136.8C83.8999 135.7 83.4999 134.5 83.2999 133.3L83.1999 133.2C77.4999 133.5 71.6999 133 65.8999 132.9C58.6999 132.8 50.7999 130.4 43.5999 131C39.9999 131.3 36.0999 133.9 32.7999 135.5C29.6999 136.9 26.5999 138.3 23.3999 139.6C23.7999 140.4 24.1999 140.7 25.0999 140.8Z" fill="#FDC500"/>
<path d="M189.9 173.1C189.5 171.8 188.6 170.6 187.9 169.4C187.4 168.5 186.9 167.7 186.4 166.9C186.1 166.4 185.9 165.6 185.5 165.3C183.9 164.1 182.4 162.6 180.6 161.8C177.4 160.4 176.1 157.6 174.6 154.9C173.6 153 174.2 152 176.4 152C177.9 152 178.7 151.3 179.6 150.2C181.1 148.1 180.6 146.1 179.6 144.1C179 143 178.3 142 177.8 140.9C177.5 140.2 177.4 139.3 177.6 138.7C178.2 137 179.1 135.4 179.8 133.7C180 133.2 180.5 132.5 180.3 132.1C179 129.8 180.8 128.2 181.6 126.4C182.8 123.7 182.6 122.1 180.9 120.7C180.1 120 179.3 119.3 178.5 118.5C176.6 116.8 172.1 117.1 170.6 119.1C169.7 120.2 168.6 121 167.2 120.4C168.2 119.5 169 118.7 169.8 117.9C169 117.1 168.2 116.3 167.2 115.3C168.5 115.2 169.6 115.2 170.7 115.1C173.1 115 173.7 114.3 173 112C168.9 112.7 164.7 113.5 160.7 114.2C154.4 115.3 148 116.2 141.5 117.3C140.9 118.7 140.2 120.2 139.4 121.7C139.4 123.4 139.5 126.3 139.7 127.8C139.9 128 140 128.2 140.2 128.5C143.1 132.1 149.1 139.7 149.7 149.4C150.3 159.4 147.1 164.8 145.3 167.1C144.7 169.5 143.4 175.2 143.1 178.7C142.8 182.8 140.9 191.5 138.9 200.3C138.9 200.5 138.8 200.6 138.8 200.8C139.5 202.2 140.6 204.5 141.8 206.5L142 206.8L142.1 207.1C143.8 211 145.3 215.4 146.4 219.7C154.9 220.3 163.9 217.5 172.4 216.4C175 216.1 177.7 215.8 180.4 215.5C180.3 215.1 180.2 214.6 180.3 214C180.4 211.8 179.9 209.3 182.5 207.9C182.7 207.8 182.8 207.4 182.9 207.2C184.8 202.2 186.4 197.2 184.6 191.8C184.4 191.1 184.5 190.2 184.5 189.4C184.6 186.8 184.9 184.2 184.7 181.7C184.5 179 185.6 177.6 188 176.8C189.8 176.4 190.5 174.9 189.9 173.1Z" fill="#FDC500"/>
<path d="M100.7 320.9C100.2 319.3 99.7999 318.2 99.4999 317.4C96.7999 315.7 92.4999 312.9 91.2999 308.2C89.8999 302.9 93.1999 299.6 94.1999 298.5C94.7999 297.9 95.1999 297.5 95.7999 296C96.7999 293.2 96.6999 290 96.2999 283.7C96.1999 281.7 95.9999 279.6 95.8999 277.1C95.3999 266.5 96.7999 260.6 97.6999 257.1L97.8999 256.3C97.8999 256.2 97.8999 256.1 97.8999 255.9C96.5999 255.4 95.3999 254.9 94.1999 254.4C92.2999 256.5 90.5999 257.9 90.1999 258.2C89.4999 258.7 88.2999 260.2 87.9999 260.8C86.9999 262.8 74.6999 283.3 73.2999 285.6C72.3999 287.1 72.1999 288.9 71.9999 290.6C71.8999 291.1 71.8999 291.7 71.7999 292.1C71.5999 293.3 71.2999 294.4 70.8999 295.8C70.3999 297.7 69.6999 300.1 69.5999 302.2C69.4999 303.4 69.5999 305.8 70.5999 309.4C70.9999 310.7 71.8999 314 69.9999 317.2C68.7999 319.2 66.8999 320.6 64.5999 321.2C63.6999 321.4 62.7999 321.5 61.8999 321.5C59.8999 321.5 57.9999 321 56.3999 320C56.1999 320 55.9999 320 55.7999 319.9C53.7999 319.7 52.3999 318.8 51.4999 318C50.2999 317.6 49.2999 317 48.2999 316.2C46.3999 315.6 44.8999 314.4 43.7999 312.8C41.6999 309.5 42.4999 305.8 42.9999 303.9C43.2999 302.6 43.8999 300.9 45.2999 297.1C45.8999 295.5 46.4999 294 46.6999 293.2C46.9999 292.2 47.5999 288.7 47.5999 287.7C47.4999 283.8 49.9999 281.2 51.6999 279.8C52.5999 278.7 52.6999 278.4 52.8999 276.7C53.2999 274.1 53.8999 270.1 56.5999 262.6C61.1999 249.8 64.2999 245.8 66.8999 243L67.1999 242.7C67.4999 242.3 68.0999 241.1 68.8999 239.6C65.2999 236.3 62.0999 232.7 59.6999 229.7C47.6999 233.2 36.0999 238.1 24.2999 242.4C16.6999 245.2 9.19994 245.8 1.59994 245.4C1.49994 246.3 1.59994 247.4 1.99994 247.9C2.89994 249 2.49994 249.7 2.09994 250.5C0.999939 252.4 0.499939 254.1 1.09994 256.5C2.59994 263 3.59994 269.6 6.89994 275.6C7.29994 276.4 7.39994 277.4 7.69994 278.3C8.49994 281.3 9.19994 284.5 10.2999 287.4C10.9999 289.4 11.3999 291.3 11.1999 293.5C10.7999 297.4 10.8999 297.4 14.5999 298.1C14.5999 298.3 14.5999 298.5 14.5999 298.7C14.5999 299.9 14.6999 301.1 14.6999 302.3C14.9999 302.3 15.2999 302.2 15.6999 302.2C16.6999 302.1 17.5999 302 18.4999 301.7C19.5999 301.3 23.4999 302.5 23.6999 303.7C24.1999 307 24.5999 310.3 24.9999 313.7C23.0999 313.4 23.1999 314.9 23.4999 316.2C23.8999 318.4 24.5999 320.5 25.0999 322.7C25.2999 323.5 25.4999 324.6 25.1999 325.1C24.7999 325.5 23.5999 325.6 22.8999 325.4C20.8999 324.7 19.1999 324.9 17.2999 325.8C16.3999 326.2 14.9999 326.1 14.0999 325.6C11.5999 324.2 9.89994 324.1 6.99994 326.5C8.29994 327.1 9.19994 327.8 10.1999 328C12.8999 328.6 15.6999 329 18.4999 329.6C26.2999 331.2 34.0999 332.7 41.7999 334.4C43.7999 334.8 45.7999 335.6 47.4999 336.8C50.3999 338.7 52.8999 341.1 55.5999 343.2C56.1999 343.6 57.0999 343.8 57.7999 343.9C60.0999 344 61.9999 343.1 63.6999 341.7C64.9999 340.7 66.2999 339.6 67.8999 339.1C71.8999 337.9 74.8999 334.9 77.8999 332.4C79.6999 330.9 80.9999 329.7 83.2999 329.9C83.7999 329.9 84.1999 329.6 84.6999 329.5C87.8999 328.7 91.0999 328 94.2999 327.1C95.8999 326.7 97.8999 326.6 99.0999 325.6C100.1 324.9 101.1 324.3 102.1 323.9C101.4 323 101 321.9 100.7 320.9Z" fill="#006938"/>
<path d="M210.9 276C208 276.5 206.1 274.9 204.7 272.6C204.1 271.7 203.9 270.6 203.4 269.7C203 269.1 202.3 268.3 201.8 268.3C199.4 268.4 197.5 267.6 195.9 265.7C195.4 265.1 194.6 264.9 193.9 264.6C191.6 263.7 190.1 260.7 190.4 258.2C190.5 257.5 190 256.1 189.5 255.9C186.7 255.3 186 253.5 186.3 250.9C186.5 249.3 186.2 247.9 184.2 247.5C184.1 247.5 184 247.4 183.9 247.3C179.5 247.2 175.7 249.4 170.9 249C167.4 248.7 164.4 247.4 160.9 247.4C167.9 246.2 174.9 245.1 181.8 243.9C181.6 243.5 181.3 243 181.4 242.6C181.7 241.2 182.5 239.8 180.9 238.7C180.8 238.7 181.4 237.5 181.8 237.2C183.1 236.4 183.9 235.6 184.1 233.9C184.7 230.4 185.8 227 186.4 223.5C186.7 221.9 186.5 220.2 186.2 218.6C185.9 217.3 184.9 216.6 183.4 216.8C181.7 217.1 180.6 216.6 180.2 215.3C177.5 215.6 174.8 215.9 172.2 216.2C163.8 217.2 154.7 220 146.2 219.5C147.8 225.6 148.8 231.6 149 235.9C149.5 246.2 142.8 252.4 140.3 254.7C139 255.9 136.8 257.9 126.3 258.9C126.1 259.5 125.9 259.9 125.6 260.4C125.6 260.4 125 261.9 125 265.9C124.9 272.9 121.8 289.2 121 291.7C120.5 293.6 119.7 300.8 120.1 303C121.3 306.2 122 310.1 122.5 313.7C122.7 313.8 123 314 123.2 314.1C123.7 314.4 124.1 314.6 124.5 314.9C124.9 315.1 125.2 315.4 125.6 315.7C126.8 315.2 128 314.8 129.2 314.4C130.9 313.8 132.3 313.1 133.5 311.8C135.4 309.8 137.5 308.2 140.4 307.7C143.3 307.1 146.1 306.1 148.8 305.1C150.3 304.6 151.6 303.2 153 303.1C154.9 303 156 302 157.2 300.8C157.8 300.2 158.4 299.4 159.1 299.1C165.8 295.8 172.7 294.1 180.4 295.2C185.9 295.9 191.6 295.3 197.2 295.2C199.8 295.2 201.4 293.5 202.1 291.3C203.7 286.4 206.3 282.5 210.8 279.9C211.2 279.7 211.5 279.4 211.8 279C212.3 278.2 212.7 277.3 213.3 276.2C212.2 276.2 211.5 275.9 210.9 276Z" fill="#006938"/>
<path d="M152.7 46.8C152.4 45.9 151.3 46 150.8 46.3C150.3 46.6 148.9 47.7 148.2 47.5C147.6 47.3 147.6 45.2 148 44.2C148.4 43.2 149.7 40.1 148.8 38.5C147.8 36.9 146.5 37.9 146.5 38.3C146.6 38.7 146.5 39.6 146.5 39.6C146.5 39.6 145.6 43 145.1 43.6C144.5 44.2 144.3 43.2 143.9 42.6C143.5 42 140.4 38.1 140 36.4C139.6 34.8 139.2 32.3 138.6 31.8C137.9 31.3 137 31.6 137 32C137 32.4 137.2 34.3 137.2 34.3C137.2 34.3 139 41.2 139.7 42.9C140.4 44.6 141.2 52.9 140.2 56.5C139.3 60.1 138.8 62.6 138.8 62.6C138.8 62.6 132.1 79.3 132 83.2C131.9 87.1 131.1 92.3 130.7 93.8C130.3 95.3 128.5 100.6 128.3 101.3C128.1 102 125.1 109.1 123.4 110.2C121.7 111.3 121.8 112.4 121.7 111.3C121.6 110.2 121.8 106.3 120.3 105.4C118.8 104.5 118.8 104.5 118.8 104.5C118.8 104.5 118.5 102.6 117.6 102.1C116.7 101.6 113.2 101.8 112.7 101.5C112.3 101.2 111.7 100.1 111.1 99.3C110.4 98.6 108.2 96.6 107.1 95.8C106 95 107 94.7 106.4 94.5C105.8 94.3 100.2 91.9 94.7999 94.1C93.9999 93.3 92.5999 92.8 91.4999 92.8C89.7999 92.8 88.3999 93.9 88.3999 95.4C88.3999 96.7 88.5999 97.5 88.8999 97.8C88.1999 98.4 87.3999 99.1 86.6999 99.8C86.3999 99.7 85.9999 99.6 85.6999 99.6C84.6999 99.6 83.8999 100.3 83.8999 101.1C83.8999 102 84.0999 102.4 84.2999 102.6C83.2999 102.6 82.4999 103.3 82.4999 104.1C82.4999 104.7 82.5999 105.1 82.6999 105.3C82.1999 106.2 81.7999 107.2 81.4999 108.1C81.3999 108.1 81.1999 108.1 81.0999 108.1C79.3999 108.1 78.0999 109.2 77.9999 110.7C77.9999 111.8 79.3999 113.5 80.7999 114.1C80.9999 115.7 81.3999 117.2 82.0999 118.8C80.9999 119.6 80.5999 121 81.1999 122.1C81.7999 123.2 83.6999 124.2 85.1999 124C86.9999 126.4 89.1999 128.5 91.3999 130.1C90.7999 131.1 90.7999 132.4 91.4999 133.3C92.4999 134.4 95.8999 134.7 97.0999 133.6C96.9999 134.4 92.0999 140.4 92.0999 140.4C92.0999 140.4 86.4999 145.4 85.7999 146.7C85.0999 148 81.9999 149.4 81.0999 150.1C80.1999 150.9 72.0999 157.2 70.9999 157.9C69.8999 158.6 58.5999 165.7 44.9999 180.2C44.9999 180.2 40.4999 180.4 38.9999 181C37.3999 181.6 32.0999 185.4 31.4999 186C30.8999 186.5 29.2999 187.9 29.1999 188.7C29.0999 189.5 29.2999 192.2 29.6999 192.6C29.6999 192.6 29.6999 194.4 30.0999 195.2C30.3999 196.1 30.9999 196.8 31.3999 196.7C31.7999 196.6 34.5999 193 34.7999 192C34.9999 191 39.0999 190.5 39.6999 190.7C40.2999 190.9 40.4999 191.4 39.9999 191.8C39.5999 192.1 35.7999 194.6 35.4999 195.2C35.0999 195.8 34.9999 197.4 35.7999 197.2C36.6999 196.9 37.3999 196.2 37.3999 196.2C37.3999 196.2 44.5999 192.1 45.8999 190.3C47.1999 188.6 49.2999 185.2 55.6999 180.1C61.9999 175 82.6999 162.4 82.6999 162.4C82.6999 162.4 89.6999 157.8 90.4999 157.1C91.1999 156.3 92.9999 156.2 93.2999 156.6C93.5999 157 97.7999 162.6 97.8999 164.1C97.9999 165.6 98.0999 169.6 96.8999 172.6C94.6999 178.2 82.0999 197.7 81.7999 198.4C81.3999 199.1 66.6999 212.4 64.5999 214.8C64.5999 214.8 63.5999 216 64.0999 216.7C64.5999 217.4 64.7999 218.3 64.7999 218.3C64.7999 218.3 62.1999 219.7 62.5999 220.6C62.9999 221.5 70.2999 231.7 78.5999 237.7C78.5999 237.7 74.6999 245.6 73.4999 247.3C72.2999 249 69.3999 250.5 63.9999 265.2C58.5999 279.9 62.4999 279 57.1999 285.3C57.1999 285.3 55.3999 286.4 55.4999 287.6C55.4999 288.8 54.8999 293.5 54.2999 295.4C53.6999 297.3 51.0999 304 50.6999 305.3C50.3999 306.6 49.7999 308.7 50.9999 309C52.1999 309.2 52.9999 309.8 53.1999 310C53.2999 310.2 53.8999 311 54.8999 311C55.9999 311 56.3999 312.4 57.0999 312.5C57.7999 312.6 59.5999 312.5 59.5999 312.5C59.5999 312.5 60.0999 313.1 60.4999 313.4C60.8999 313.8 61.9999 314.2 63.1999 313.9C64.3999 313.6 64.0999 312.3 63.7999 311.4C63.4999 310.5 62.2999 306.1 62.4999 301.8C62.6999 297.4 64.4999 293.1 64.7999 291C65.0999 288.9 65.1999 285.2 67.2999 281.7C69.3999 278.2 80.9999 258.9 81.6999 257.5C82.3999 256 84.3999 253.6 85.9999 252.4C87.5999 251.2 90.7999 247.9 91.7999 244.8C91.7999 244.8 99.3999 248.9 104.6 250.2C104.6 250.2 106.2 255 105.5 258.1C104.8 261.2 103.3 266.4 103.7 276.9C104.2 287.4 105.2 293 103.1 298.7C101 304.4 98.1999 303.9 98.7999 306.4C99.3999 308.9 104.1 311.2 105.2 312.1C106.3 313 107.7 317.2 108.2 318.7C108.7 320.2 109.9 323.5 112 324.5C114.1 325.5 115.5 326.1 115.8 325.6C116.1 325 117.3 326.2 118.3 325.8C119.3 325.4 119.7 325.3 120.5 325.2C121.3 325.1 122.6 325 122.8 324.3C123 323.7 122.4 322.3 121 321.4C119.6 320.5 116.3 319 115.9 317.1C115.6 315.2 115 309.2 113.6 305.7C112.2 302.2 113.9 291.2 114.5 289.5C115 287.9 118 272.4 118.1 266C118.2 259.6 119.4 257.4 119.7 256.8C120.1 256.2 120.3 252.1 120.3 252.1C120.3 252.1 133.5 251.5 135.6 249.5C137.8 247.5 142.4 243.4 142.1 236.4C141.8 229.5 139.3 218.2 135.7 210.1C135.7 210.1 131.4 202.2 131.5 201.2C131.7 200.2 135.7 183.4 136.1 178.1C136.5 172.9 138.6 164.4 138.9 163.7C139.2 163 143.2 159.7 142.6 149.8C142 139.9 133.8 132.6 133 130.6C132.3 128.7 132.2 120.1 132.4 119.6C132.6 119 138.5 107.9 140.1 99.2C140.1 99.2 142 93.1 142.3 92.3C142.6 91.5 143.7 88.4 143.8 87C143.9 85.6 147.3 69.9 147.7 58.1C147.7 58.1 150.2 54.8 149.9 50.7C149.9 50.7 150.8 49.3 151.6 48.9C152.1 48.7 152.9 47.7 152.7 46.8Z" fill="black"/>
<path d="M174.1 90.4C172.2 89.3 172 87.9 172.5 86.1C173 84.2 173.5 82.4 173.9 80.5C174 79.9 173.9 79.3 173.9 78.5C171.4 79.1 170.3 77.8 169.9 75.8C169.6 74 168.6 73.7 167 73.8C163.8 73.9 163.5 73.6 162.6 70.5C162.5 70.1 162.5 69.6 162.3 69.2C162 68.6 161.7 67.9 161.1 67.6C159.1 66.4 157.1 65.4 155 64.3C154.8 64.2 154.6 64 154.3 63.9C153.6 72.3 152 81 151.1 85.6C150.9 86.7 150.7 87.6 150.7 88C150.5 89.9 149.8 92.1 148.8 94.8C148.5 95.8 147.2 99.9 146.7 101.2C145.8 105.7 144 111.1 141.2 117.3C147.7 116.3 154.1 115.3 160.4 114.2C164.4 113.5 168.6 112.7 172.7 112C172.7 112 172.7 112 172.7 111.9C172.2 109.9 170.9 107.9 170.9 106C170.9 103.5 171.4 100.9 172.4 98.7C173.2 97 173.4 95.8 172.3 94.3C175.2 93.2 175.9 91.4 174.1 90.4Z" fill="#CE132D"/>
<path d="M23.1999 83.3C21.2999 87.1 21.2999 90.7 23.7999 94.3C24.0999 94.8 24.2999 95.7 24.0999 96.3C23.1999 98.5 23.1999 100.5 24.7999 102.3C24.3999 102.8 24.0999 103.2 23.7999 103.6C21.4999 106.4 21.5999 106.5 23.3999 109.8C23.7999 110.5 23.3999 111.7 23.4999 112.6C23.4999 113.6 23.3999 114.7 23.7999 115.5C24.2999 116.4 25.2999 117.1 25.9999 117.8C27.6999 119.3 27.8999 123.2 26.3999 125C26.0999 125.4 25.7999 126.1 25.8999 126.5C26.4999 127.7 27.1999 128.8 27.9999 130C26.2999 132.2 23.3999 133.5 23.2999 137.4C23.2999 138.4 23.2999 139.3 23.5999 139.9C26.6999 138.6 29.8999 137.2 32.9999 135.8C36.3999 134.3 40.1999 131.6 43.7999 131.3C50.8999 130.7 58.7999 133.1 66.0999 133.2C71.7999 133.3 77.5999 133.8 83.3999 133.5C82.5999 132.8 81.8999 132 81.1999 131.2C78.2999 130.3 75.6999 128.3 74.3999 125.7C73.2999 123.4 73.0999 120.8 73.7999 118.4C71.8999 116.4 70.4999 113.8 70.4999 110.8C70.5999 107.3 72.3999 104.3 75.1999 102.6C75.3999 101.4 75.8999 100.3 76.5999 99.3C76.9999 97.7 77.7999 96.3 78.9999 95.1C79.5999 94.5 80.3999 93.9 81.0999 93.5C81.5999 91.4 82.6999 89.5 84.3999 88.1C86.2999 86.5 88.7999 85.6 91.2999 85.6C92.5999 85.6 94.0999 85.9 95.5999 86.4C96.8999 86.1 98.2999 86 99.7999 86C102.9 86 106.2 86.7 109.2 87.8C111 88.5 112.4 89.8 113.2 91.3C114.5 92.4 115.9 93.6 116.5 94.3C116.6 94.4 116.6 94.4 116.7 94.5C118.1 94.6 119.6 94.9 120.9 95.5C121.4 95.7 121.8 96 122.2 96.3C122.7 94.7 123.4 92.6 123.6 92C123.8 91.1 124.6 86.5 124.7 83.2C124.8 79 128.6 68.7 131.8 60.6C132 59.5 132.5 57.4 133.2 54.8C133.6 53.1 133.3 47.4 132.8 45.6C132.7 45.4 132.6 45.1 132.5 44.8C131.5 45.6 130.4 46.1 129.3 46.8C128.2 47.5 127.2 48.3 126 49.2C126.1 49.3 125.9 49 125.6 48.8C124.5 48 123.5 46.7 122.3 46.4C120.5 45.9 118.5 45.7 116.7 46.2C114.1 46.9 111.7 46.4 109.2 46.2C104.6 45.9 99.9999 46 95.3999 46.1C96.7999 47.2 97.7999 48.8 97.7999 51.3C89.1999 53.7 78.9999 50 70.5999 49C67.1999 48.6 63.8999 47.1 60.6999 46.7C51.0999 45.7 40.6999 48.2 30.9999 49.9C27.1999 50.6 23.2999 51.2 19.2999 51.8C18.8999 52.5 18.4999 53.2 18.1999 54C17.6999 55.1 17.3999 56.3 16.6999 57.3C15.5999 58.8 14.3999 60.1 16.1999 61.6C15.6999 62.7 14.6999 64.2 14.9999 64.6C17.3999 67.8 16.7999 73.1 22.3999 74.3C19.8999 75.4 18.9999 77.1 19.6999 78.9C20.2999 80.4 21.8999 81.5 23.1999 82.9C23.2999 82.9 23.2999 83.1 23.1999 83.3Z" fill="#CE132D"/>
<path d="M280.615 80.1025L282.856 80.8496V82.3438H280.615L282.109 84.585C281.025 87.0752 277.041 88.3203 270.156 88.3203L264.927 89.0674L264.18 91.3086H264.927C263.433 94.8535 260.444 110.791 255.962 139.121L258.203 148.833H257.456C256.343 148.833 255.347 146.343 254.468 141.362L255.215 133.892V133.145H254.468V134.639C252.974 134.639 252.227 135.137 252.227 136.133V136.88L253.721 148.833V149.58H252.227L249.238 147.339L248.491 148.086H247.744C245.752 143.779 244.756 140.044 244.756 136.88L245.503 137.627H246.25L244.756 132.397L246.997 131.65V127.915H245.503V127.168C246.997 127.168 247.744 126.67 247.744 125.674V124.927H246.25C246.25 120.942 246.997 118.95 248.491 118.95V109.238C249.282 108.535 250.278 103.306 251.479 93.5498L246.25 94.2969L235.791 93.5498V92.8027L239.526 92.0557V92.8027L240.273 92.0557H251.479V89.8145L239.526 91.3086L238.779 90.5615H238.032L233.55 91.3086L231.309 89.8145L232.056 86.0791L231.309 85.332C231.309 82.8418 234.297 81.5967 240.273 81.5967L280.615 80.1025ZM276.133 82.3438V83.0908H279.121V82.3438H276.133ZM248.491 124.18L246.997 140.615H248.491L247.744 136.88V135.386L249.238 133.145H248.491L249.238 132.397V131.65L248.491 130.903V130.156L249.985 127.168L249.238 124.18H248.491Z" fill="black"/>
<path d="M285.273 81.0254H286.02V83.2666H286.768V81.7725H289.756C290.752 81.7725 291.25 83.2666 291.25 86.2549L293.491 87.002C293.491 85.5078 293.989 84.7607 294.985 84.7607L295.732 85.5078V86.2549L291.997 106.426L303.203 105.679H310.674L311.421 101.943L310.674 101.196H312.168L311.421 95.9668V95.2197H312.915L312.168 94.4727V92.9785H313.662V91.4844H312.168V90.7373H313.662L312.915 89.9902V84.7607L313.662 85.5078H314.409V82.5195L313.662 81.7725V81.0254H315.903L312.168 106.426C313.164 106.426 314.658 98.208 316.65 81.7725L319.639 81.0254C320.137 85.0098 320.884 87.002 321.88 87.002H322.627C322.627 85.5078 323.125 84.7607 324.121 84.7607H324.868C322.378 101.987 318.643 122.158 313.662 145.273H312.915L312.168 144.526L312.915 143.779V137.803H312.168L309.927 145.273H307.685C306.689 145.273 306.191 143.779 306.191 140.791H305.444V143.779H304.697C303.701 143.779 303.203 143.032 303.203 141.538C303.203 137.935 304.697 129.468 307.685 116.138H306.938L297.227 116.885L290.503 116.138C289.009 128.091 287.515 136.06 286.02 140.044H283.779C282.783 140.044 282.285 138.052 282.285 134.067H281.538L280.791 139.297L279.297 137.803V135.562L280.044 134.814V134.067L279.297 133.32H278.55L277.803 134.067H277.056L276.309 131.079C278.301 114.263 280.542 102.061 283.032 94.4727H283.779L283.032 93.7256V91.4844L285.273 83.2666H284.526L285.273 81.0254ZM286.02 84.0137V89.2432H286.768V84.0137H286.02ZM285.273 89.9902L284.526 95.9668V97.4609H285.273L286.02 91.4844V89.9902H285.273ZM283.779 98.208V101.196H284.526V98.208H283.779ZM283.032 101.943L282.285 105.679V106.426H283.032L283.779 103.438V101.943H283.032ZM281.538 109.414V112.402H282.285V109.414H281.538ZM309.927 116.885L309.18 121.367V122.114H309.927L310.674 118.379V116.885H309.927ZM308.433 122.861V125.85H309.18V122.861H308.433ZM313.662 131.079L312.915 134.814V137.056H313.662L314.409 131.826V131.079H313.662ZM277.056 134.814H277.803V138.55H277.056V134.814Z" fill="black"/>
<path d="M366.177 81.4648L369.78 83.9697C368.726 88.3936 366.821 90.5176 364.067 90.3418L344.556 91.2207L344.468 92.7148L348.159 92.9785L352.685 92.5391L353.389 93.374L354.136 93.418L359.409 92.9785L360.903 93.1104L360.859 93.8574L343.501 95.6592L342.139 105.327L342.886 105.371L363.188 103.745L363.848 104.536L363.804 105.283L362.31 105.151V105.898L367.451 107.041L367.407 107.788C366.323 110.571 359.175 112.827 345.962 114.556L338.447 114.819L339.15 115.566L335.547 125.059H334.8L335.239 118.335L334.492 118.291L333.042 128.662C347.954 126.67 358.486 125.879 364.639 126.289L368.286 127.3L368.242 128.794L366.748 128.706L367.407 129.497L367.275 131.738C365.84 133.613 362.793 134.404 358.135 134.111L358.091 134.858L364.067 135.254L363.935 136.748L329.175 141.846L328.428 141.802C326.025 141.274 324.824 140.498 324.824 139.473V139.341L324.956 137.1L327.021 129.014L326.318 128.223L327.812 128.267L327.549 132.002L328.296 132.09C328.589 129.6 329.175 128.398 330.054 128.486L329.351 127.651L329.878 120.225L328.384 120.093L327.373 123.784L328.208 123.081L328.955 123.125L328.647 127.607L327.9 127.52L328.032 125.322L327.285 125.278L327.197 126.772L326.45 126.729L326.538 125.234L328.911 112.622L328.164 112.578L329.878 108.975L329.175 108.184L329.219 107.437L330.845 94.8242L331.548 95.6152L332.295 95.6592L332.383 94.165L331.899 90.3857L333.086 83.7061L333.218 81.4648L333.965 81.5527L334.668 82.3438L335.459 81.6406L336.206 81.7285L336.909 82.4756L337.7 81.7725L339.941 81.9482L366.177 81.4648ZM328.779 114.116L328.428 119.346L329.175 119.39L329.526 114.204L328.779 114.116ZM353.433 115.083H354.18L354.092 115.83L340.557 117.192L339.853 116.357L339.897 115.654L346.665 115.347L346.621 116.094L353.433 115.083Z" fill="black"/>
<path d="M426.909 82.6953L427.568 83.4424H428.315L428.403 82.6953C436.636 84.8047 440.547 87.793 440.137 91.6602L441.103 96.1426H439.609C439.814 94.1504 439.419 93.1543 438.423 93.1543H437.676L438.071 96.8896L437.939 97.6367H436.445C435.449 97.6367 435.039 96.8896 435.215 95.3955L434.38 96.1426H433.633C431.143 94.1504 428.755 93.1543 426.47 93.1543C421.489 93.1543 415.703 98.3838 409.111 108.843L406.738 117.061C406.006 123.682 408.73 128.413 414.912 131.255L414.736 132.749H413.242L413.154 133.496H414.648C418.193 133.496 423.408 129.014 430.293 120.049L430.381 119.302H429.634C425.679 124.077 422.06 127.563 418.779 129.761H418.032L427.305 120.049H422.075C422.192 119.053 421.504 118.555 420.01 118.555L419.351 117.808L419.438 117.061C419.526 116.064 422.09 115.317 427.129 114.819L427.305 113.325L426.47 114.072H421.987L418.076 108.843L418.911 108.096L418.955 107.349L427.129 108.096L446.772 105.854L446.86 105.107C444.37 105.107 443.184 104.609 443.301 103.613H444.048L444.707 104.36L445.542 103.613H446.289C451.592 105.137 454.185 106.382 454.067 107.349L454.023 108.096L453.188 108.843L453.101 109.59H456.089L455.913 111.084H455.166L443.081 112.578L442.993 113.325H443.74L450.552 112.578L450.376 114.072C445.395 114.072 442.685 116.064 442.246 120.049L438.686 132.002L439.39 132.749L439.302 133.496L438.115 137.231L438.247 143.208L436.621 144.702L437.236 145.449C435.185 146.094 434.072 147.339 433.896 149.185H431.655C430.659 149.185 430.395 146.943 430.864 142.461H430.117L429.546 147.69H427.305L427.7 143.955L427.524 138.726H426.03C423.188 140.718 420.332 141.714 417.461 141.714H413.726L412.451 140.22L412.495 139.473H413.989L414.077 138.726C403.735 138.726 398.14 135.239 397.29 128.267C396.704 125.044 396.411 121.821 396.411 118.599C396.411 116.606 396.528 114.6 396.763 112.578L396.894 111.084C397.334 107.275 399.121 102.295 402.256 96.1426H403.003L402.827 97.6367L400.015 102.866L399.971 103.613H400.718C401.216 99.0723 406.064 93.3447 415.264 86.4307H416.011L416.099 85.6836H415.352L413.022 86.4307C414.487 83.9404 419.116 82.6953 426.909 82.6953ZM411.484 87.1777H412.231L406.431 92.4072L406.518 91.6602L411.484 87.1777ZM422.471 88.6719L422.427 89.4189H427.656L427.7 88.6719H422.471ZM406.431 92.4072L406.299 93.1543L403.003 96.1426L403.091 95.3955L406.431 92.4072ZM439.477 104.36H442.466L440.796 105.854L439.477 104.36ZM417.285 129.761H418.032L416.406 131.255H415.659L417.285 129.761ZM420.933 137.231L427.261 134.243L427.436 132.749H426.689L420.933 137.231ZM415.483 139.473L415.439 140.22H419.175L419.219 139.473H415.483Z" fill="black"/>
<path d="M466.02 81.7285C465.903 83.2227 466.841 83.9697 468.833 83.9697L470.195 86.958L469.404 87.7051H470.151C466.577 98.252 464.394 110.454 463.603 124.312L463.34 128.794L464.087 129.541L464.043 130.288L463.252 131.035H463.999L463.208 131.782L463.647 137.012L463.56 138.506C460.893 141.729 459.502 144.219 459.385 145.977H456.396L452.793 144.482L453.848 139.253L450.991 136.265L452.353 125.059L453.101 111.611L454.727 109.37L454.902 106.382L454.199 105.635L454.243 104.888H455.737L455.781 104.141L455.078 103.394L458.11 89.1992H457.363L458.154 88.4521L458.374 83.9697L457.671 83.2227L457.715 82.4756L466.02 81.7285ZM457.759 95.1758L457.495 100.405H458.242L458.506 95.1758H457.759ZM456.616 102.646L456.352 107.129H457.1L457.363 102.646H456.616ZM455.474 109.37L455.254 113.853H456.001L456.221 109.37H455.474ZM455.342 139.253L455.122 142.988L456.66 141.494L456.836 139.253H455.342Z" fill="black"/>
<path d="M486.147 81.0693H495.112C505.571 83.0322 510.801 87.5146 510.801 94.5166V98.999L503.33 109.458H504.077L511.548 102.734V104.229C508.999 109.912 505.762 113.647 501.836 115.435L497.353 116.929V119.917C498.437 119.917 503.667 126.392 513.042 139.341C515.034 140.161 517.026 142.153 519.018 145.317V146.064L515.283 143.076V143.823C517.773 146.46 519.018 148.452 519.018 149.8H518.271L514.536 152.041H513.789L512.295 149.8L511.548 150.547H510.801C500.84 142.402 493.867 134.185 489.883 125.894L486.147 118.423C484.39 118.423 483.393 121.411 483.159 127.388C483.481 132.368 483.232 135.4 482.412 136.484C480.947 137.686 480.698 138.887 481.665 140.088V141.582H479.424C478.428 141.582 477.93 140.586 477.93 138.594H477.183C477.183 140.586 476.245 141.333 474.37 140.835L471.074 136.44L471.953 129.629V126.641L476.435 105.723H477.183V108.711H477.93L481.665 93.0225C480.669 93.0225 480.171 94.0186 480.171 96.0107H479.424V94.5166H474.941V93.7695C474.941 92.7734 476.435 92.0264 479.424 91.5283V90.7812H477.93L473.447 92.2754H472.7C472.7 91.2793 473.696 90.7812 475.688 90.7812V90.0342C473.696 90.0342 472.7 89.2871 472.7 87.793L486.147 81.0693ZM486.894 107.964H487.642C495.464 104.214 500.942 100.229 504.077 96.0107V94.5166C504.077 92.8174 501.089 91.0742 495.112 89.2871L490.63 90.7812L486.894 107.964ZM501.836 89.2871C502.832 91.543 503.828 92.7881 504.824 93.0225V91.5283L501.836 89.2871ZM506.318 93.7695L505.571 97.5049H506.318L507.065 96.7578V93.7695H506.318ZM478.677 96.0107H479.424V98.252L478.677 101.24H477.93V98.999L478.677 96.0107ZM504.077 98.999L500.342 104.229H501.089L504.824 99.7461V98.999H504.077ZM511.548 100.493H513.042L512.295 102.734H511.548V100.493ZM477.183 102.734H477.93V105.723H477.183V102.734ZM475.688 112.446V115.435H476.435V112.446H475.688ZM498.101 134.858V135.605L501.089 138.594C500.122 136.338 499.126 135.093 498.101 134.858ZM501.836 140.088V140.835L504.824 143.076V142.329L501.836 140.088Z" fill="black"/>
<path d="M526.445 81.0254C527.441 81.0254 527.939 82.5195 527.939 85.5078H529.434L531.675 84.0137L532.422 84.7607L528.686 126.597C531.851 125.103 540.317 123.359 554.087 121.367H554.834V122.114C537.402 124.956 528.686 127.197 528.686 128.838L536.904 126.597V127.344L551.099 124.355V125.103L551.846 124.355H552.593L553.34 125.103L557.075 124.355H560.063L565.293 125.103V125.85C565.293 127.344 561.558 128.589 554.087 129.585V130.332L554.834 129.585H555.581L560.81 130.332L561.558 129.585V131.826L536.904 137.803L521.216 143.779H518.975L515.986 140.044H515.239V139.297C515.239 138.037 516.235 137.29 518.227 137.056V134.814L515.986 131.826L518.975 98.208H519.722V101.196L518.975 106.426H520.469L518.975 116.138L519.722 116.885L518.975 119.873V123.608H519.722L522.71 84.0137C523.706 84.0137 524.204 83.2666 524.204 81.7725L524.951 81.0254H526.445Z" fill="black"/>
<path d="M595.659 78.4326L596.362 79.1797V79.9268L597.109 79.1797H600.845C601.841 79.1797 602.31 80.4248 602.251 82.915H602.998C603.057 81.4209 603.584 80.6738 604.58 80.6738C605.576 80.6738 606.045 81.4209 605.986 82.915L611.26 82.168L619.258 83.6621L622.246 82.915C626.055 82.915 628.984 84.9072 631.035 88.8916L630.244 94.1211L630.947 94.8682V95.6152L629.321 100.098H628.574L628.618 98.6035H627.871C624.004 107.979 618.555 114.453 611.523 118.027L599.394 123.257L598.999 135.957L599.614 139.692C598.618 139.692 597.285 142.183 595.615 147.163L594.868 147.91H594.121L588.232 144.922L589.199 138.945L587.046 135.957L588.892 125.498L588.144 124.751L590.869 110.557L590.122 109.81L590.913 109.062H592.407L592.319 112.051H593.066L593.198 108.315L592.539 106.074H594.033L594.121 102.339L592.671 100.845L592.583 103.833H591.836C591.953 100.669 590.547 98.1787 587.617 96.3623L587.002 91.8799L587.134 88.8916C593.667 86.2256 596.948 84.4824 596.977 83.6621L597.021 82.915L595.571 81.4209L594.824 82.168L594.121 79.1797L594.912 78.4326H595.659ZM602.163 107.568H603.657C610.073 104.873 615.698 100.391 620.532 94.1211H618.291C608.301 94.7949 603.276 96.2891 603.218 98.6035L602.163 107.568ZM621.191 97.1094C619.609 99.9219 613.237 104.155 602.075 109.81L601.328 110.557V111.304H602.822C610.176 109.048 616.548 104.316 621.938 97.1094H621.191ZM590.825 112.798L590.781 113.545L591.484 114.292L590.737 115.039L590.649 116.533H592.143L592.319 112.798H590.825Z" fill="black"/>
<path d="M664.785 81.2451C670.644 81.2451 676.123 82.9883 681.221 86.4746L680.474 87.2217V87.9688L683.462 92.4512H681.968L681.221 91.7041H680.474L682.715 108.14H683.462C683.462 105.649 683.96 104.404 684.956 104.404V107.393C684.956 110.205 682.466 116.68 677.485 126.816H678.232C674.717 131.65 669.487 136.133 662.544 140.264L658.809 141.011H658.061C646.226 141.011 638.755 136.279 635.649 126.816L632.661 122.334L633.408 121.587L632.661 116.357V114.863C632.661 110.732 636.645 103.511 644.614 93.1982V93.9453C640.952 98.8672 637.964 104.346 635.649 110.381V111.128H636.396C638.213 103.833 644.936 94.6191 656.567 83.4863L651.338 86.4746H650.591C650.591 84.1895 655.322 82.4463 664.785 81.2451ZM661.05 93.9453L660.303 93.1982V93.9453L661.05 94.6924L655.82 99.1748C651.689 99.1748 647.705 106.147 643.867 120.093C643.867 124.077 646.108 127.563 650.591 130.552H651.338C656.787 130.552 663.013 124.824 670.015 113.369C672.505 107.92 673.75 103.936 673.75 101.416V95.4395C673.75 94.0625 671.26 93.0664 666.279 92.4512H665.532L664.785 93.1982H664.038V92.4512L661.05 93.9453ZM682.715 96.1865H684.209V99.9219H682.715V96.1865ZM644.614 104.404L642.373 108.887H643.12L645.361 104.404H644.614ZM673.75 108.887L670.762 116.357H673.003L675.244 111.128L674.497 108.887H673.75ZM678.979 111.875L678.232 114.116V115.61H678.979L679.727 112.622V111.875H678.979ZM634.902 114.863V120.84H635.649V114.863H634.902ZM670.015 117.104L667.026 120.84H667.773L670.762 117.104H670.015ZM646.108 133.54V134.287L649.844 136.528V135.781L646.108 133.54Z" fill="black"/>
<path d="M691.548 79.8389H693.789L694.536 83.5742C696.03 83.5742 696.777 82.8271 696.777 81.333H697.524L699.018 82.8271L698.271 87.3096H699.018L698.271 88.0566V88.8037L699.018 89.5508V90.2979H698.271L699.018 91.0449V91.792L698.271 116.445V117.192H699.018L701.26 109.722H702.754L697.524 123.916H699.018L707.983 98.5156H706.489L703.501 108.228H702.007V107.48L707.236 95.5273H707.983V97.0215L713.96 95.5273C715.952 96.2598 716.948 97.0068 716.948 97.7686L717.695 97.0215H719.936L722.925 114.951H723.672C723.672 112.725 727.598 99.8926 735.449 76.4551H736.196L736.943 78.6963H737.69V77.2021H738.437C742.129 77.2021 744.121 77.9492 744.414 79.4434V80.9375L742.92 83.1787V83.9258H744.414L745.161 78.6963H746.655L748.149 80.1904V80.9375L731.143 139.604L728.901 140.352V138.857L728.154 139.604H727.407L726.66 138.857C726.66 140.85 725.913 141.846 724.419 141.846C720.435 141.494 718.442 140.747 718.442 139.604H719.189C718.691 137.114 717.695 135.371 716.201 134.375L713.213 117.939C712.363 117.969 709.375 124.941 704.248 138.857L700.513 142.593H699.766L699.018 139.604C706.636 127.007 710.62 117.295 710.972 110.469C709.653 111.787 706.416 119.258 701.26 132.881C700.644 132.881 699.648 135.869 698.271 141.846H691.548L690.801 138.857L690.054 139.604H689.307C689.307 136.909 688.56 134.917 687.065 133.628V130.64L690.054 132.881L688.56 120.181L689.307 119.434L688.56 118.687L689.307 117.939H688.56L689.307 117.192V106.733L690.054 102.998H689.307L690.054 102.251V82.8271L689.307 82.0801V81.333L691.548 79.8389ZM735.449 80.1904C728.096 103.071 724.419 115.903 724.419 118.687V119.434H725.166L736.943 80.1904H735.449ZM734.131 108.975L732.637 115.698V116.445H733.384L734.878 109.722V108.975H734.131ZM729.648 126.904L728.154 133.628V135.122H728.901L730.395 127.651V126.904H729.648Z" fill="black"/>
<path d="M786.558 81.4648L790.161 83.9697C789.106 88.3936 787.202 90.5176 784.448 90.3418L764.936 91.2207L764.849 92.7148L768.54 92.9785L773.066 92.5391L773.769 93.374L774.517 93.418L779.79 92.9785L781.284 93.1104L781.24 93.8574L763.882 95.6592L762.519 105.327L763.267 105.371L783.569 103.745L784.228 104.536L784.185 105.283L782.69 105.151V105.898L787.832 107.041L787.788 107.788C786.704 110.571 779.556 112.827 766.343 114.556L758.828 114.819L759.531 115.566L755.928 125.059H755.181L755.62 118.335L754.873 118.291L753.423 128.662C768.335 126.67 778.867 125.879 785.019 126.289L788.667 127.3L788.623 128.794L787.129 128.706L787.788 129.497L787.656 131.738C786.221 133.613 783.174 134.404 778.516 134.111L778.472 134.858L784.448 135.254L784.316 136.748L749.556 141.846L748.809 141.802C746.406 141.274 745.205 140.498 745.205 139.473V139.341L745.337 137.1L747.402 129.014L746.699 128.223L748.193 128.267L747.93 132.002L748.677 132.09C748.97 129.6 749.556 128.398 750.435 128.486L749.731 127.651L750.259 120.225L748.765 120.093L747.754 123.784L748.589 123.081L749.336 123.125L749.028 127.607L748.281 127.52L748.413 125.322L747.666 125.278L747.578 126.772L746.831 126.729L746.919 125.234L749.292 112.622L748.545 112.578L750.259 108.975L749.556 108.184L749.6 107.437L751.226 94.8242L751.929 95.6152L752.676 95.6592L752.764 94.165L752.28 90.3857L753.467 83.7061L753.599 81.4648L754.346 81.5527L755.049 82.3438L755.84 81.6406L756.587 81.7285L757.29 82.4756L758.081 81.7725L760.322 81.9482L786.558 81.4648ZM749.16 114.116L748.809 119.346L749.556 119.39L749.907 114.204L749.16 114.116ZM773.813 115.083H774.56L774.473 115.83L760.937 117.192L760.234 116.357L760.278 115.654L767.046 115.347L767.002 116.094L773.813 115.083Z" fill="black"/>
<path d="M806.245 81.0693H815.21C825.669 83.0322 830.898 87.5146 830.898 94.5166V98.999L823.428 109.458H824.175L831.645 102.734V104.229C829.097 109.912 825.859 113.647 821.934 115.435L817.451 116.929V119.917C818.535 119.917 823.765 126.392 833.14 139.341C835.132 140.161 837.124 142.153 839.116 145.317V146.064L835.381 143.076V143.823C837.871 146.46 839.116 148.452 839.116 149.8H838.369L834.634 152.041H833.887L832.393 149.8L831.645 150.547H830.898C820.937 142.402 813.965 134.185 809.98 125.894L806.245 118.423C804.487 118.423 803.491 121.411 803.257 127.388C803.579 132.368 803.33 135.4 802.51 136.484C801.045 137.686 800.796 138.887 801.763 140.088V141.582H799.521C798.525 141.582 798.027 140.586 798.027 138.594H797.28C797.28 140.586 796.343 141.333 794.468 140.835L791.172 136.44L792.051 129.629V126.641L796.533 105.723H797.28V108.711H798.027L801.763 93.0225C800.767 93.0225 800.268 94.0186 800.268 96.0107H799.521V94.5166H795.039V93.7695C795.039 92.7734 796.533 92.0264 799.521 91.5283V90.7812H798.027L793.545 92.2754H792.798C792.798 91.2793 793.794 90.7812 795.786 90.7812V90.0342C793.794 90.0342 792.798 89.2871 792.798 87.793L806.245 81.0693ZM806.992 107.964H807.739C815.561 104.214 821.04 100.229 824.175 96.0107V94.5166C824.175 92.8174 821.186 91.0742 815.21 89.2871L810.727 90.7812L806.992 107.964ZM821.934 89.2871C822.93 91.543 823.926 92.7881 824.922 93.0225V91.5283L821.934 89.2871ZM826.416 93.7695L825.669 97.5049H826.416L827.163 96.7578V93.7695H826.416ZM798.774 96.0107H799.521V98.252L798.774 101.24H798.027V98.999L798.774 96.0107ZM824.175 98.999L820.439 104.229H821.186L824.922 99.7461V98.999H824.175ZM831.645 100.493H833.14L832.393 102.734H831.645V100.493ZM797.28 102.734H798.027V105.723H797.28V102.734ZM795.786 112.446V115.435H796.533V112.446H795.786ZM818.198 134.858V135.605L821.186 138.594C820.22 136.338 819.224 135.093 818.198 134.858ZM821.934 140.088V140.835L824.922 143.076V142.329L821.934 140.088Z" fill="black"/>
<path d="M264.048 182.136L263.96 183.63H261.719L261.675 184.377H262.422L276.66 183.63H279.648L279.604 184.377L278.066 185.871L278.769 186.618L278.726 188.112C278.638 190.69 277.832 192.185 276.309 192.595L277.012 194.836L276.133 197.077L275.43 196.33H274.683C267.71 196.682 264.209 197.18 264.18 197.824L263.433 197.077C254.907 198.425 250.586 200.915 250.469 204.548L250.249 210.524L268.223 209.03L268.97 209.777L268.926 210.524H265.19L265.146 211.271C267.637 211.271 268.852 211.77 268.794 212.766V213.513C268.706 216.003 268.164 217.248 267.168 217.248H262.685L262.642 217.995H267.871L267.827 219.489C267.798 220.339 261.499 222.082 248.931 224.719L247.876 232.937L248.623 233.684V234.431L247.832 235.178L247.788 235.925L248.447 238.166H247.7L248.359 240.407C248.535 242.517 246.792 246.384 243.13 252.009L237.153 251.262L238.164 243.791C236.26 243.791 235.308 242.868 235.308 241.022V240.803C236.069 239.543 236.977 231.691 238.032 217.248H239.526L238.823 216.501L239.79 210.524L240.493 211.271H241.24L242.295 203.801L242.427 200.812C239.936 200.812 238.691 200.314 238.691 199.318L240.273 197.077C238.281 197.077 237.329 196.33 237.417 194.836C237.563 190.354 238.384 188.112 239.878 188.112C242.368 188.112 243.657 186.867 243.745 184.377H244.492L245.195 185.124L246.777 183.63H249.018L251.172 185.871L264.048 182.136ZM266.113 185.871L266.069 186.618H268.31L276.572 185.871V185.124H272.09L266.113 185.871ZM259.082 194.089V194.836H259.829L274.77 193.342L274.814 192.595L272.617 191.848L271.826 192.595H271.079L270.376 191.848L259.082 194.089ZM239.263 223.972L238.955 232.189H239.702L240.01 223.972H239.263ZM240.361 245.285L240.229 248.273H240.977L241.108 245.285H240.361Z" fill="black"/>
<path d="M310.937 184.245C316.797 184.245 322.275 185.988 327.373 189.475L326.626 190.222V190.969L329.614 195.451H328.12L327.373 194.704H326.626L328.867 211.14H329.614C329.614 208.649 330.112 207.404 331.108 207.404V210.393C331.108 213.205 328.618 219.68 323.638 229.816H324.385C320.869 234.65 315.64 239.133 308.696 243.264L304.961 244.011H304.214C292.378 244.011 284.907 239.279 281.802 229.816L278.813 225.334L279.56 224.587L278.813 219.357V217.863C278.813 213.732 282.798 206.511 290.767 196.198V196.945C287.104 201.867 284.116 207.346 281.802 213.381V214.128H282.549C284.365 206.833 291.089 197.619 302.72 186.486L297.49 189.475H296.743C296.743 187.189 301.475 185.446 310.937 184.245ZM307.202 196.945L306.455 196.198V196.945L307.202 197.692L301.973 202.175C297.842 202.175 293.857 209.147 290.019 223.093C290.019 227.077 292.261 230.563 296.743 233.552H297.49C302.939 233.552 309.165 227.824 316.167 216.369C318.657 210.92 319.902 206.936 319.902 204.416V198.439C319.902 197.062 317.412 196.066 312.432 195.451H311.685L310.937 196.198H310.19V195.451L307.202 196.945ZM328.867 199.187H330.361V202.922H328.867V199.187ZM290.767 207.404L288.525 211.887H289.272L291.514 207.404H290.767ZM319.902 211.887L316.914 219.357H319.155L321.396 214.128L320.649 211.887H319.902ZM325.132 214.875L324.385 217.116V218.61H325.132L325.879 215.622V214.875H325.132ZM281.055 217.863V223.84H281.802V217.863H281.055ZM316.167 220.104L313.179 223.84H313.926L316.914 220.104H316.167ZM292.261 236.54V237.287L295.996 239.528V238.781L292.261 236.54Z" fill="black"/>
<path d="M345.039 184.553L346.533 186.794L345.786 190.529L346.533 191.276H347.28L348.027 187.541H349.521L350.268 189.782C346.284 204.138 344.292 215.344 344.292 223.4C344.79 228.879 345.786 231.618 347.28 231.618L364.463 212.194L365.21 208.459V187.541L366.704 186.047C367.7 186.047 368.198 187.043 368.198 189.035H368.945C368.945 187.043 370.19 186.047 372.681 186.047L374.175 189.035L373.428 192.771C374.424 192.771 374.922 191.525 374.922 189.035H376.416L377.163 189.782H377.91L374.175 243.571L373.428 246.56C371.435 246.56 370.439 247.556 370.439 249.548H367.451L368.198 242.077H366.704V246.56L364.463 248.801V248.054L365.21 240.583C363.716 240.583 362.969 239.587 362.969 237.595H362.222L349.521 243.571L343.545 242.077V242.824C338.389 242.824 334.902 235.354 333.086 220.412C335.078 198 337.07 186.794 339.062 186.794V186.047H339.81V189.035H338.315V190.529L339.062 191.276V192.023H338.315L339.062 194.265L336.821 198H337.568L338.315 197.253L336.074 210.7V213.688H336.821C338.403 194.265 341.143 184.553 345.039 184.553ZM336.074 214.436L335.327 215.183V221.159H336.074L336.821 214.436H336.074ZM359.233 220.412L354.004 226.389H354.751L359.98 220.412H359.233ZM337.568 232.365V233.859L338.315 236.101H339.062V234.606L338.315 232.365H337.568ZM342.798 236.101V236.848C342.798 238.576 345.039 240.07 349.521 241.33H351.016V240.583C348.144 240.554 345.405 239.06 342.798 236.101Z" fill="black"/>
<path d="M393.555 184.816L398.784 189.299C398.784 187.805 399.282 187.058 400.278 187.058H401.025L411.484 213.952V215.446H410.737L409.243 210.964H408.496V212.458L413.726 225.158H414.473C416.465 212.209 419.336 198.688 423.086 184.597L425.327 186.091L427.568 185.344L432.051 187.585V188.332C430.557 188.332 429.81 189.328 429.81 191.32H430.557L431.304 192.067H432.051L432.798 188.332H434.292V189.079L433.545 189.826L434.292 190.573V191.32C430.542 202.834 427.173 219.343 424.185 240.847H422.69L424.185 228.894C423.188 228.894 421.694 233.625 419.702 243.088C417.856 244.582 416.113 245.329 414.473 245.329V246.823H413.726C413.726 245.827 412.729 245.329 410.737 245.329V240.1C410.737 237.844 405.757 225.393 395.796 202.746H395.049C393.057 211.623 391.313 223.576 389.819 238.605L389.072 237.858C386.084 238.737 384.59 239.982 384.59 241.594H383.096C382.1 239.719 381.602 236.481 381.602 231.882H380.854V238.605H379.36L378.613 234.87C378.613 221.335 381.602 204.899 387.578 185.563L393.555 184.816ZM383.096 203.493V204.24L383.843 204.987L383.096 205.734V207.229H383.843L384.59 204.24L383.843 203.493H383.096ZM411.484 215.446C412.773 215.446 413.769 217.438 414.473 221.423V222.17H413.726L411.484 215.446Z" fill="black"/>
<path d="M445.806 184.245H448.794L451.035 185.739L456.265 184.992C464.907 184.992 472.876 189.973 480.171 199.934L483.906 207.404L483.159 208.151L483.906 211.887V215.622C483.906 228.425 473.447 238.137 452.529 244.758L445.059 245.505C445.059 244.245 444.062 243.498 442.07 243.264V246.252H439.829V241.77L439.082 241.022L439.829 240.275V239.528C436.841 237.478 435.347 235.734 435.347 234.299C436.841 211.74 439.331 195.305 442.817 184.992H443.564L444.311 185.739L445.806 184.245ZM442.817 191.716L439.082 213.381V214.128H439.829L443.564 193.21V191.716H442.817ZM454.77 196.945C454.77 197.941 453.774 198.439 451.782 198.439C449.79 207.521 448.296 217.98 447.3 229.816C450.2 229.816 457.671 227.326 469.712 222.346V221.599H468.218C472.202 217.526 474.194 213.293 474.194 208.898V206.657C474.194 201.179 470.459 197.941 462.988 196.945H454.77ZM469.712 196.945V197.692L472.7 199.187V198.439L470.459 196.945H469.712ZM476.435 207.404L475.688 216.369H477.183V214.128L477.93 211.14L477.183 207.404H476.435ZM481.665 213.381L477.93 225.334V226.081H478.677L482.412 214.875V213.381H481.665ZM474.194 218.61L472.7 221.599H473.447L474.941 218.61H474.194ZM469.712 232.058C470.884 231.882 472.627 230.388 474.941 227.575V226.828L469.712 232.058ZM452.529 236.54V237.287H455.518L459.253 235.793V235.046H458.506L452.529 236.54ZM446.553 237.287L447.3 239.528H448.794L450.288 238.034V237.287H449.541L447.3 238.034L446.553 237.287ZM438.335 241.77H439.082V242.517L437.588 244.011H436.841V243.264L438.335 241.77Z" fill="black"/>
<path d="M514.712 181.037C515.034 182.531 517.026 183.278 520.688 183.278L526.665 209.426H531.894V210.173L527.412 210.92V211.667C528.906 211.667 529.653 212.165 529.653 213.161H535.63V213.908C535.63 215.021 533.14 216.018 528.159 216.896L529.653 221.379L528.906 223.62L529.653 228.103L528.906 228.85H529.653L528.906 229.597L529.653 238.562V243.044L528.906 242.297H528.159L530.4 253.503H528.906C528.906 252.009 528.408 251.262 527.412 251.262V252.009L528.159 254.25H527.412L526.665 253.503H525.918C525.918 254.997 525.42 255.744 524.424 255.744L520.688 243.044H519.941V246.032H519.194L517.7 237.067L519.941 238.562V237.814C519.531 233.332 518.784 231.091 517.7 231.091L518.447 230.344V228.103H516.953V230.344H516.206V227.355L516.953 226.608H516.206L515.459 227.355V224.367H516.206L516.953 225.114H517.7L516.953 224.367V219.885L500.518 223.62V225.114L505.747 223.62L508.735 224.367L512.471 223.62V225.114C502.012 226.989 496.782 229.479 496.782 232.585C495.464 238.063 493.97 241.55 492.3 243.044V244.538H490.059L489.311 243.791H488.564V244.538L486.323 243.044L487.817 238.562H487.07C485.576 238.562 484.829 240.554 484.829 244.538L483.335 243.044L484.082 238.562L481.841 236.32L494.541 205.69H495.288C495.288 207.185 495.786 207.932 496.782 207.932L497.529 204.196L496.782 204.943H496.035V201.955L496.782 198.22L497.529 198.967H498.276L497.529 198.22V197.473L499.023 194.484H499.77L500.518 195.231H501.265V194.484C501.265 193.488 500.518 192.99 499.023 192.99L502.759 182.531H505.747L505 183.278V184.025C508.457 182.033 511.694 181.037 514.712 181.037ZM510.229 198.22L504.253 213.908H505.747C510.727 213.908 513.467 212.414 513.965 209.426L510.977 198.22H510.229ZM503.506 202.702L502.012 207.932L501.265 207.185H500.518L501.265 210.173H502.012L504.253 203.449V202.702H503.506ZM495.288 209.426L494.541 210.173V211.667H495.288L496.035 209.426H495.288ZM499.77 212.414L499.023 215.402H499.77L500.518 214.655V212.414H499.77ZM493.047 213.161L492.3 216.149H493.047L494.541 213.161H493.047ZM505.747 215.402V216.149H507.241C511.724 215.651 513.965 214.904 513.965 213.908H513.218L505.747 215.402ZM516.206 231.838H517.7V236.32H516.953L516.206 231.838ZM526.665 237.067V238.562L527.412 241.55H528.159V240.056L527.412 237.067H526.665ZM519.194 239.309V240.803L521.435 240.056V238.562L519.194 239.309Z" fill="black"/>
<path d="M583.31 183.103L585.552 183.85V185.344H583.31L584.805 187.585C583.721 190.075 579.736 191.32 572.852 191.32L567.622 192.067L566.875 194.309H567.622C566.128 197.854 563.14 213.791 558.657 242.121L560.898 251.833H560.151C559.038 251.833 558.042 249.343 557.163 244.362L557.91 236.892V236.145H557.163V237.639C555.669 237.639 554.922 238.137 554.922 239.133V239.88L556.416 251.833V252.58H554.922L551.934 250.339L551.186 251.086H550.439C548.447 246.779 547.451 243.044 547.451 239.88L548.198 240.627H548.945L547.451 235.397L549.692 234.65V230.915H548.198V230.168C549.692 230.168 550.439 229.67 550.439 228.674V227.927H548.945C548.945 223.942 549.692 221.95 551.186 221.95V212.238C551.977 211.535 552.974 206.306 554.175 196.55L548.945 197.297L538.486 196.55V195.803L542.222 195.056V195.803L542.969 195.056H554.175V192.814L542.222 194.309L541.475 193.562H540.727L536.245 194.309L534.004 192.814L534.751 189.079L534.004 188.332C534.004 185.842 536.992 184.597 542.969 184.597L583.31 183.103ZM578.828 185.344V186.091H581.816V185.344H578.828ZM551.186 227.18L549.692 243.615H551.186L550.439 239.88V238.386L551.934 236.145H551.186L551.934 235.397V234.65L551.186 233.903V233.156L552.681 230.168L551.934 227.18H551.186Z" fill="black"/>
<path d="M595.044 184.729C594.927 186.223 595.864 186.97 597.856 186.97L599.219 189.958L598.428 190.705H599.175C595.601 201.252 593.418 213.454 592.627 227.312L592.363 231.794L593.11 232.541L593.066 233.288L592.275 234.035H593.022L592.231 234.782L592.671 240.012L592.583 241.506C589.917 244.729 588.525 247.219 588.408 248.977H585.42L581.816 247.482L582.871 242.253L580.015 239.265L581.377 228.059L582.124 214.611L583.75 212.37L583.926 209.382L583.223 208.635L583.267 207.888H584.761L584.805 207.141L584.102 206.394L587.134 192.199H586.387L587.178 191.452L587.397 186.97L586.694 186.223L586.738 185.476L595.044 184.729ZM586.782 198.176L586.518 203.405H587.266L587.529 198.176H586.782ZM585.64 205.646L585.376 210.129H586.123L586.387 205.646H585.64ZM584.497 212.37L584.277 216.853H585.024L585.244 212.37H584.497ZM584.365 242.253L584.145 245.988L585.684 244.494L585.859 242.253H584.365Z" fill="black"/>
<path d="M632.793 184.245C638.652 184.245 644.131 185.988 649.228 189.475L648.481 190.222V190.969L651.47 195.451H649.976L649.228 194.704H648.481L650.723 211.14H651.47C651.47 208.649 651.968 207.404 652.964 207.404V210.393C652.964 213.205 650.474 219.68 645.493 229.816H646.24C642.725 234.65 637.495 239.133 630.552 243.264L626.816 244.011H626.069C614.233 244.011 606.763 239.279 603.657 229.816L600.669 225.334L601.416 224.587L600.669 219.357V217.863C600.669 213.732 604.653 206.511 612.622 196.198V196.945C608.96 201.867 605.972 207.346 603.657 213.381V214.128H604.404C606.221 206.833 612.944 197.619 624.575 186.486L619.346 189.475H618.599C618.599 187.189 623.33 185.446 632.793 184.245ZM629.058 196.945L628.31 196.198V196.945L629.058 197.692L623.828 202.175C619.697 202.175 615.713 209.147 611.875 223.093C611.875 227.077 614.116 230.563 618.599 233.552H619.346C624.795 233.552 631.02 227.824 638.022 216.369C640.513 210.92 641.758 206.936 641.758 204.416V198.439C641.758 197.062 639.268 196.066 634.287 195.451H633.54L632.793 196.198H632.046V195.451L629.058 196.945ZM650.723 199.187H652.217V202.922H650.723V199.187ZM612.622 207.404L610.381 211.887H611.128L613.369 207.404H612.622ZM641.758 211.887L638.769 219.357H641.011L643.252 214.128L642.505 211.887H641.758ZM646.987 214.875L646.24 217.116V218.61H646.987L647.734 215.622V214.875H646.987ZM602.91 217.863V223.84H603.657V217.863H602.91ZM638.022 220.104L635.034 223.84H635.781L638.769 220.104H638.022ZM614.116 236.54V237.287L617.852 239.528V238.781L614.116 236.54Z" fill="black"/>
<path d="M669.443 184.816L674.673 189.299C674.673 187.805 675.171 187.058 676.167 187.058H676.914L687.373 213.952V215.446H686.626L685.132 210.964H684.385V212.458L689.614 225.158H690.361C692.353 212.209 695.225 198.688 698.975 184.597L701.216 186.091L703.457 185.344L707.939 187.585V188.332C706.445 188.332 705.698 189.328 705.698 191.32H706.445L707.192 192.067H707.939L708.686 188.332H710.181V189.079L709.434 189.826L710.181 190.573V191.32C706.431 202.834 703.061 219.343 700.073 240.847H698.579L700.073 228.894C699.077 228.894 697.583 233.625 695.591 243.088C693.745 244.582 692.002 245.329 690.361 245.329V246.823H689.614C689.614 245.827 688.618 245.329 686.626 245.329V240.1C686.626 237.844 681.645 225.393 671.685 202.746H670.937C668.945 211.623 667.202 223.576 665.708 238.605L664.961 237.858C661.973 238.737 660.478 239.982 660.478 241.594H658.984C657.988 239.719 657.49 236.481 657.49 231.882H656.743V238.605H655.249L654.502 234.87C654.502 221.335 657.49 204.899 663.467 185.563L669.443 184.816ZM658.984 203.493V204.24L659.731 204.987L658.984 205.734V207.229H659.731L660.478 204.24L659.731 203.493H658.984ZM687.373 215.446C688.662 215.446 689.658 217.438 690.361 221.423V222.17H689.614L687.373 215.446Z" fill="black"/>
</svg>
